# MagicaVoxel @ Ephtracy

# group
o New Piskel-1

# material
mtllib watergun.mtl
usemtl palette

# normals
vn 0 0 1
vn 0 0 -1
vn 0 -1 0
vn 0 1 0
vn -1 0 0
vn 1 0 0

# texcoords
vt 0.00195313 0.5
vt 0.0683594 0.5
vt 0.751953 0.5
vt 0.845703 0.5
vt 0.990234 0.5

# verts
v -0.1 0.2 1.6
v -0.1 0.5 1.6
v 0.3 0.2 1.6
v 0.3 0.5 1.6
v -0.1 0.1 1.5
v -0.1 0.2 1.5
v -0.1 0.5 1.5
v -0.1 0.6 1.5
v 0.3 0.1 1.5
v 0.3 0.2 1.5
v 0.3 0.5 1.5
v 0.3 0.6 1.5
v -0.1 -5.96046e-08 1.4
v -0.1 0.1 1.4
v -0.1 0.6 1.4
v -0.1 0.7 1.4
v 0.3 -5.96046e-08 1.4
v 0.3 0.1 1.4
v 0.3 0.6 1.4
v 0.3 0.7 1.4
v -0.1 -0.5 1.3
v -0.1 -5.96046e-08 1.3
v 0.3 -0.5 1.3
v 0.3 -5.96046e-08 1.3
v -0.1 -5.96046e-08 0.9
v -0.1 0.2 0.9
v 0.3 -5.96046e-08 0.9
v 0.3 0.2 0.9
v -0.1 -0.6 0.2
v -0.1 -0.1 0.2
v -0.1 0.1 0.2
v 0.3 -0.6 0.2
v 0.3 -0.1 0.2
v 0.3 0.1 0.2
v -0.1 0.1 0.1
v -0.1 0.2 0.1
v 0.3 0.1 0.1
v 0.3 0.2 0.1
v -0.1 -0.5 1
v -0.1 -0.2 1
v -0.1 -5.96046e-08 1
v -0.1 0.2 1
v 0.3 -0.5 1
v 0.3 -0.2 1
v 0.3 -5.96046e-08 1
v 0.3 0.2 1
v -0.1 -0.2 0.9
v -0.1 -0.1 0.9
v 0.3 -0.2 0.9
v 0.3 -0.1 0.9
v -0.1 -0.1 0.8
v -0.1 0.2 0.8
v 0.3 -0.1 0.8
v 0.3 0.2 0.8
v -0.1 -0.6 -0.1
v -0.1 -0.1 -0.1
v -0.1 -5.96046e-08 -0.1
v 0.3 -0.6 -0.1
v 0.3 -0.1 -0.1
v 0.3 -5.96046e-08 -0.1
v -0.1 -5.96046e-08 -0.2
v -0.1 0.1 -0.2
v 0.3 -5.96046e-08 -0.2
v 0.3 0.1 -0.2
v -0.1 0.1 -0.3
v -0.1 0.2 -0.3
v 0.3 0.1 -0.3
v 0.3 0.2 -0.3
v -0.1 0.6 -1.2
v -0.1 0.7 -1.2
v 0.3 0.6 -1.2
v 0.3 0.7 -1.2
v -0.1 0.2 -1.3
v -0.1 0.3 -1.3
v -0.1 0.5 -1.3
v -0.1 0.6 -1.3
v 0.3 0.2 -1.3
v 0.3 0.3 -1.3
v 0.3 0.5 -1.3
v 0.3 0.6 -1.3
v -0.1 0.3 -1.6
v -0.1 0.5 -1.6
v 0.3 0.3 -1.6
v 0.3 0.5 -1.6
v -0.1 -0.6 0.2
v 0.3 -0.6 0.2
v -0.1 -0.6 -0.1
v 0.3 -0.6 -0.1
v -0.1 -0.5 1.3
v 0.3 -0.5 1.3
v -0.1 -0.5 1
v 0.3 -0.5 1
v -0.1 -0.2 1
v 0.3 -0.2 1
v -0.1 -0.2 0.9
v 0.3 -0.2 0.9
v -0.1 -0.1 0.9
v 0.3 -0.1 0.9
v -0.1 -0.1 0.8
v 0.3 -0.1 0.8
v -0.1 -5.96046e-08 1.4
v 0.3 -5.96046e-08 1.4
v -0.1 -5.96046e-08 1.3
v 0.3 -5.96046e-08 1.3
v -0.1 -5.96046e-08 -0.1
v 0.3 -5.96046e-08 -0.1
v -0.1 -5.96046e-08 -0.2
v 0.3 -5.96046e-08 -0.2
v -0.1 0.1 1.5
v 0.3 0.1 1.5
v -0.1 0.1 1.4
v 0.3 0.1 1.4
v -0.1 0.1 -0.2
v 0.3 0.1 -0.2
v -0.1 0.1 -0.3
v 0.3 0.1 -0.3
v -0.1 0.2 1.6
v 0.3 0.2 1.6
v -0.1 0.2 1.5
v 0.3 0.2 1.5
v -0.1 0.2 1
v 0.3 0.2 1
v -0.1 0.2 0.9
v 0.3 0.2 0.9
v -0.1 0.2 0.8
v 0.3 0.2 0.8
v -0.1 0.2 0.1
v 0.3 0.2 0.1
v -0.1 0.2 -0.3
v 0.3 0.2 -0.3
v -0.1 0.2 -1.3
v 0.3 0.2 -1.3
v -0.1 0.3 -1.3
v 0.3 0.3 -1.3
v -0.1 0.3 -1.5
v 0.3 0.3 -1.5
v -0.1 0.3 -1.6
v 0.3 0.3 -1.6
v -0.1 -5.96046e-08 1
v 0.3 -5.96046e-08 1
v -0.1 -5.96046e-08 0.9
v 0.3 -5.96046e-08 0.9
v -0.1 0.1 0.2
v 0.3 0.1 0.2
v -0.1 0.1 0.1
v 0.3 0.1 0.1
v -0.1 0.5 1.6
v 0.3 0.5 1.6
v -0.1 0.5 1.5
v 0.3 0.5 1.5
v -0.1 0.5 -1.3
v 0.3 0.5 -1.3
v -0.1 0.5 -1.5
v 0.3 0.5 -1.5
v -0.1 0.5 -1.6
v 0.3 0.5 -1.6
v -0.1 0.6 1.5
v 0.3 0.6 1.5
v -0.1 0.6 1.4
v 0.3 0.6 1.4
v -0.1 0.6 -1.2
v 0.3 0.6 -1.2
v -0.1 0.6 -1.3
v 0.3 0.6 -1.3
v -0.1 0.7 1.4
v 0.3 0.7 1.4
v -0.1 0.7 1.3
v 0.3 0.7 1.3
v -0.1 0.7 1.2
v 0.3 0.7 1.2
v -0.1 0.7 1.1
v 0.3 0.7 1.1
v -0.1 0.7 -1.2
v 0.3 0.7 -1.2
v -0.1 -0.6 0.2
v -0.1 -0.6 -0.1
v -0.1 -0.5 1.3
v -0.1 -0.5 1
v -0.1 -0.2 1
v -0.1 -0.2 0.9
v -0.1 -0.1 0.9
v -0.1 -0.1 0.8
v -0.1 -0.1 0.2
v -0.1 -0.1 -0.1
v -0.1 -5.96046e-08 1.4
v -0.1 -5.96046e-08 1.3
v -0.1 -5.96046e-08 1
v -0.1 -5.96046e-08 0.9
v -0.1 -5.96046e-08 -0.1
v -0.1 -5.96046e-08 -0.2
v -0.1 0.1 1.5
v -0.1 0.1 1.4
v -0.1 0.1 0.2
v -0.1 0.1 0.1
v -0.1 0.1 -0.2
v -0.1 0.1 -0.3
v -0.1 0.2 1.6
v -0.1 0.2 1.5
v -0.1 0.2 1.2
v -0.1 0.2 1
v -0.1 0.2 0.9
v -0.1 0.2 0.8
v -0.1 0.2 0.1
v -0.1 0.2 -0.3
v -0.1 0.2 -1.3
v -0.1 0.3 1.3
v -0.1 0.3 1.2
v -0.1 0.3 1
v -0.1 0.3 -1.2
v -0.1 0.3 -1.3
v -0.1 0.3 -1.5
v -0.1 0.3 -1.6
v -0.1 0.4 1.4
v -0.1 0.4 1.3
v -0.1 0.4 1.2
v -0.1 0.4 1
v -0.1 0.4 -1.2
v -0.1 0.5 1.6
v -0.1 0.5 1.5
v -0.1 0.5 1.4
v -0.1 0.5 1.3
v -0.1 0.5 1.2
v -0.1 0.5 1
v -0.1 0.5 0.9
v -0.1 0.5 -1.1
v -0.1 0.5 -1.3
v -0.1 0.5 -1.5
v -0.1 0.5 -1.6
v -0.1 0.6 1.5
v -0.1 0.6 1.4
v -0.1 0.6 1.1
v -0.1 0.6 0.9
v -0.1 0.6 -1.1
v -0.1 0.6 -1.2
v -0.1 0.6 -1.3
v -0.1 0.7 1.4
v -0.1 0.7 1.3
v -0.1 0.7 1.2
v -0.1 0.7 1.1
v -0.1 0.7 -1.2
v 0.3 -0.6 0.2
v 0.3 -0.6 -0.1
v 0.3 -0.5 1.3
v 0.3 -0.5 1
v 0.3 -0.2 1
v 0.3 -0.2 0.9
v 0.3 -0.1 0.9
v 0.3 -0.1 0.8
v 0.3 -0.1 0.2
v 0.3 -0.1 -0.1
v 0.3 -5.96046e-08 1.4
v 0.3 -5.96046e-08 1.3
v 0.3 -5.96046e-08 1
v 0.3 -5.96046e-08 0.9
v 0.3 -5.96046e-08 -0.1
v 0.3 -5.96046e-08 -0.2
v 0.3 0.1 1.5
v 0.3 0.1 1.4
v 0.3 0.1 0.2
v 0.3 0.1 0.1
v 0.3 0.1 -0.2
v 0.3 0.1 -0.3
v 0.3 0.2 1.6
v 0.3 0.2 1.5
v 0.3 0.2 1.2
v 0.3 0.2 1
v 0.3 0.2 0.9
v 0.3 0.2 0.8
v 0.3 0.2 0.1
v 0.3 0.2 -0.3
v 0.3 0.2 -1.3
v 0.3 0.3 1.3
v 0.3 0.3 1.2
v 0.3 0.3 1
v 0.3 0.3 -1.2
v 0.3 0.3 -1.3
v 0.3 0.3 -1.5
v 0.3 0.3 -1.6
v 0.3 0.4 1.4
v 0.3 0.4 1.3
v 0.3 0.4 1.2
v 0.3 0.4 1
v 0.3 0.4 -1.2
v 0.3 0.5 1.6
v 0.3 0.5 1.5
v 0.3 0.5 1.4
v 0.3 0.5 1.3
v 0.3 0.5 1.2
v 0.3 0.5 1
v 0.3 0.5 0.9
v 0.3 0.5 -1.1
v 0.3 0.5 -1.3
v 0.3 0.5 -1.5
v 0.3 0.5 -1.6
v 0.3 0.6 1.5
v 0.3 0.6 1.4
v 0.3 0.6 1.1
v 0.3 0.6 0.9
v 0.3 0.6 -1.1
v 0.3 0.6 -1.2
v 0.3 0.6 -1.3
v 0.3 0.7 1.4
v 0.3 0.7 1.3
v 0.3 0.7 1.2
v 0.3 0.7 1.1
v 0.3 0.7 -1.2

# faces
f 3/4/1 2/4/1 1/4/1
f 4/4/1 2/4/1 3/4/1
f 9/5/1 6/5/1 5/5/1
f 10/5/1 6/5/1 9/5/1
f 11/1/1 8/1/1 7/1/1
f 12/1/1 8/1/1 11/1/1
f 17/5/1 14/5/1 13/5/1
f 18/5/1 14/5/1 17/5/1
f 19/1/1 16/1/1 15/1/1
f 20/1/1 16/1/1 19/1/1
f 23/5/1 22/5/1 21/5/1
f 24/5/1 22/5/1 23/5/1
f 27/5/1 26/5/1 25/5/1
f 28/5/1 26/5/1 27/5/1
f 32/3/1 30/3/1 29/3/1
f 33/1/1 31/1/1 30/1/1
f 33/3/1 30/3/1 32/3/1
f 34/1/1 31/1/1 33/1/1
f 37/1/1 36/1/1 35/1/1
f 38/1/1 36/1/1 37/1/1
f 39/5/2 40/5/2 43/5/2
f 43/5/2 40/5/2 44/5/2
f 41/5/2 42/5/2 45/5/2
f 45/5/2 42/5/2 46/5/2
f 47/5/2 48/5/2 49/5/2
f 49/5/2 48/5/2 50/5/2
f 51/5/2 52/5/2 53/5/2
f 53/5/2 52/5/2 54/5/2
f 55/3/2 56/3/2 58/3/2
f 56/1/2 57/1/2 59/1/2
f 58/3/2 56/3/2 59/3/2
f 59/1/2 57/1/2 60/1/2
f 61/1/2 62/1/2 63/1/2
f 63/1/2 62/1/2 64/1/2
f 65/1/2 66/1/2 67/1/2
f 67/1/2 66/1/2 68/1/2
f 69/4/2 70/4/2 71/4/2
f 71/4/2 70/4/2 72/4/2
f 73/1/2 74/1/2 77/1/2
f 77/1/2 74/1/2 78/1/2
f 75/1/2 76/1/2 79/1/2
f 79/1/2 76/1/2 80/1/2
f 81/2/2 82/2/2 83/2/2
f 83/2/2 82/2/2 84/2/2
f 87/3/3 86/3/3 85/3/3
f 88/3/3 86/3/3 87/3/3
f 91/5/3 90/5/3 89/5/3
f 92/5/3 90/5/3 91/5/3
f 95/5/3 94/5/3 93/5/3
f 96/5/3 94/5/3 95/5/3
f 99/5/3 98/5/3 97/5/3
f 100/5/3 98/5/3 99/5/3
f 103/5/3 102/5/3 101/5/3
f 104/5/3 102/5/3 103/5/3
f 107/1/3 106/1/3 105/1/3
f 108/1/3 106/1/3 107/1/3
f 111/5/3 110/5/3 109/5/3
f 112/5/3 110/5/3 111/5/3
f 115/1/3 114/1/3 113/1/3
f 116/1/3 114/1/3 115/1/3
f 119/4/3 118/4/3 117/4/3
f 120/4/3 118/4/3 119/4/3
f 123/1/3 122/1/3 121/1/3
f 124/1/3 122/1/3 123/1/3
f 127/1/3 126/1/3 125/1/3
f 128/1/3 126/1/3 127/1/3
f 131/1/3 130/1/3 129/1/3
f 132/1/3 130/1/3 131/1/3
f 135/4/3 134/4/3 133/4/3
f 136/4/3 134/4/3 135/4/3
f 137/2/3 136/2/3 135/2/3
f 138/2/3 136/2/3 137/2/3
f 139/5/4 140/5/4 141/5/4
f 141/5/4 140/5/4 142/5/4
f 143/1/4 144/1/4 145/1/4
f 145/1/4 144/1/4 146/1/4
f 147/4/4 148/4/4 149/4/4
f 149/4/4 148/4/4 150/4/4
f 151/4/4 152/4/4 153/4/4
f 153/4/4 152/4/4 154/4/4
f 153/2/4 154/2/4 155/2/4
f 155/2/4 154/2/4 156/2/4
f 157/1/4 158/1/4 159/1/4
f 159/1/4 158/1/4 160/1/4
f 161/1/4 162/1/4 163/1/4
f 163/1/4 162/1/4 164/1/4
f 165/1/4 166/1/4 167/1/4
f 167/1/4 166/1/4 168/1/4
f 167/3/4 168/3/4 169/3/4
f 169/3/4 168/3/4 170/3/4
f 169/1/4 170/1/4 171/1/4
f 171/1/4 170/1/4 172/1/4
f 171/4/4 172/4/4 173/4/4
f 173/4/4 172/4/4 174/4/4
f 179/5/5 178/5/5 177/5/5
f 181/5/5 180/5/5 179/5/5
f 183/3/5 176/3/5 175/3/5
f 184/3/5 176/3/5 183/3/5
f 186/5/5 182/5/5 181/5/5
f 186/5/5 179/5/5 177/5/5
f 186/5/5 181/5/5 179/5/5
f 187/5/5 182/5/5 186/5/5
f 188/5/5 182/5/5 187/5/5
f 189/1/5 184/1/5 183/1/5
f 192/5/5 186/5/5 185/5/5
f 192/5/5 187/5/5 186/5/5
f 193/1/5 189/1/5 183/1/5
f 193/1/5 190/1/5 189/1/5
f 194/1/5 190/1/5 193/1/5
f 195/1/5 190/1/5 194/1/5
f 198/5/5 192/5/5 191/5/5
f 199/5/5 187/5/5 192/5/5
f 199/5/5 192/5/5 198/5/5
f 200/5/5 187/5/5 199/5/5
f 201/5/5 182/5/5 188/5/5
f 202/5/5 182/5/5 201/5/5
f 203/1/5 195/1/5 194/1/5
f 203/1/5 196/1/5 195/1/5
f 204/1/5 196/1/5 203/1/5
f 206/4/5 198/4/5 197/4/5
f 206/4/5 199/4/5 198/4/5
f 207/1/5 202/1/5 201/1/5
f 207/4/5 199/4/5 206/4/5
f 207/1/5 200/1/5 199/1/5
f 207/1/5 203/1/5 202/1/5
f 207/1/5 205/1/5 204/1/5
f 207/1/5 201/1/5 200/1/5
f 207/1/5 204/1/5 203/1/5
f 208/1/5 205/1/5 207/1/5
f 209/1/5 205/1/5 208/1/5
f 210/1/5 205/1/5 209/1/5
f 213/4/5 206/4/5 197/4/5
f 214/1/5 207/1/5 206/1/5
f 214/4/5 206/4/5 213/4/5
f 214/1/5 208/1/5 207/1/5
f 215/1/5 208/1/5 214/1/5
f 216/3/5 209/3/5 208/3/5
f 216/1/5 208/1/5 215/1/5
f 217/1/5 210/1/5 209/1/5
f 217/3/5 209/3/5 216/3/5
f 218/4/5 213/4/5 197/4/5
f 219/4/5 213/4/5 218/4/5
f 220/1/5 215/1/5 214/1/5
f 220/4/5 213/4/5 219/4/5
f 220/1/5 214/1/5 213/1/5
f 221/1/5 215/1/5 220/1/5
f 222/3/5 216/3/5 215/3/5
f 222/1/5 215/1/5 221/1/5
f 223/1/5 217/1/5 216/1/5
f 223/3/5 216/3/5 222/3/5
f 224/1/5 217/1/5 223/1/5
f 225/1/5 217/1/5 224/1/5
f 226/1/5 210/1/5 217/1/5
f 226/1/5 217/1/5 225/1/5
f 226/4/5 211/4/5 210/4/5
f 227/2/5 212/2/5 211/2/5
f 227/4/5 211/4/5 226/4/5
f 228/2/5 212/2/5 227/2/5
f 229/1/5 221/1/5 220/1/5
f 229/1/5 220/1/5 219/1/5
f 230/1/5 221/1/5 229/1/5
f 231/1/5 224/1/5 223/1/5
f 231/1/5 223/1/5 222/1/5
f 232/4/5 225/4/5 224/4/5
f 232/1/5 224/1/5 231/1/5
f 233/1/5 226/1/5 225/1/5
f 233/4/5 225/4/5 232/4/5
f 234/1/5 226/1/5 233/1/5
f 235/1/5 226/1/5 234/1/5
f 236/1/5 221/1/5 230/1/5
f 237/3/5 222/3/5 221/3/5
f 237/1/5 221/1/5 236/1/5
f 238/1/5 231/1/5 222/1/5
f 238/3/5 222/3/5 237/3/5
f 239/4/5 232/4/5 231/4/5
f 239/1/5 231/1/5 238/1/5
f 239/4/5 234/4/5 233/4/5
f 239/4/5 233/4/5 232/4/5
f 240/4/5 234/4/5 239/4/5
f 243/5/6 244/5/6 245/5/6
f 245/5/6 246/5/6 247/5/6
f 241/3/6 242/3/6 249/3/6
f 249/3/6 242/3/6 250/3/6
f 247/5/6 248/5/6 252/5/6
f 243/5/6 245/5/6 252/5/6
f 245/5/6 247/5/6 252/5/6
f 252/5/6 248/5/6 253/5/6
f 253/5/6 248/5/6 254/5/6
f 249/1/6 250/1/6 255/1/6
f 251/5/6 252/5/6 258/5/6
f 252/5/6 253/5/6 258/5/6
f 249/1/6 255/1/6 259/1/6
f 255/1/6 256/1/6 259/1/6
f 259/1/6 256/1/6 260/1/6
f 260/1/6 256/1/6 261/1/6
f 257/5/6 258/5/6 264/5/6
f 258/5/6 253/5/6 265/5/6
f 264/5/6 258/5/6 265/5/6
f 265/5/6 253/5/6 266/5/6
f 254/5/6 248/5/6 267/5/6
f 267/5/6 248/5/6 268/5/6
f 260/1/6 261/1/6 269/1/6
f 261/1/6 262/1/6 269/1/6
f 269/1/6 262/1/6 270/1/6
f 263/4/6 264/4/6 272/4/6
f 264/4/6 265/4/6 272/4/6
f 267/1/6 268/1/6 273/1/6
f 272/4/6 265/4/6 273/4/6
f 265/1/6 266/1/6 273/1/6
f 268/1/6 269/1/6 273/1/6
f 270/1/6 271/1/6 273/1/6
f 266/1/6 267/1/6 273/1/6
f 269/1/6 270/1/6 273/1/6
f 273/1/6 271/1/6 274/1/6
f 274/1/6 271/1/6 275/1/6
f 275/1/6 271/1/6 276/1/6
f 263/4/6 272/4/6 279/4/6
f 272/1/6 273/1/6 280/1/6
f 279/4/6 272/4/6 280/4/6
f 273/1/6 274/1/6 280/1/6
f 280/1/6 274/1/6 281/1/6
f 274/3/6 275/3/6 282/3/6
f 281/1/6 274/1/6 282/1/6
f 275/1/6 276/1/6 283/1/6
f 282/3/6 275/3/6 283/3/6
f 263/4/6 279/4/6 284/4/6
f 284/4/6 279/4/6 285/4/6
f 280/1/6 281/1/6 286/1/6
f 285/4/6 279/4/6 286/4/6
f 279/1/6 280/1/6 286/1/6
f 286/1/6 281/1/6 287/1/6
f 281/3/6 282/3/6 288/3/6
f 287/1/6 281/1/6 288/1/6
f 282/1/6 283/1/6 289/1/6
f 288/3/6 282/3/6 289/3/6
f 289/1/6 283/1/6 290/1/6
f 290/1/6 283/1/6 291/1/6
f 283/1/6 276/1/6 292/1/6
f 291/1/6 283/1/6 292/1/6
f 276/4/6 277/4/6 292/4/6
f 277/2/6 278/2/6 293/2/6
f 292/4/6 277/4/6 293/4/6
f 293/2/6 278/2/6 294/2/6
f 286/1/6 287/1/6 295/1/6
f 285/1/6 286/1/6 295/1/6
f 295/1/6 287/1/6 296/1/6
f 289/1/6 290/1/6 297/1/6
f 288/1/6 289/1/6 297/1/6
f 290/4/6 291/4/6 298/4/6
f 297/1/6 290/1/6 298/1/6
f 291/1/6 292/1/6 299/1/6
f 298/4/6 291/4/6 299/4/6
f 299/1/6 292/1/6 300/1/6
f 300/1/6 292/1/6 301/1/6
f 296/1/6 287/1/6 302/1/6
f 287/3/6 288/3/6 303/3/6
f 302/1/6 287/1/6 303/1/6
f 288/1/6 297/1/6 304/1/6
f 303/3/6 288/3/6 304/3/6
f 297/4/6 298/4/6 305/4/6
f 304/1/6 297/1/6 305/1/6
f 299/4/6 300/4/6 305/4/6
f 298/4/6 299/4/6 305/4/6
f 305/4/6 300/4/6 306/4/6
