# MagicaVoxel @ Ephtracy

# group
o New Piskel-1

# material
mtllib Body-0-New Piskel-1.png (24).mtl
usemtl palette

# normals
vn -1 0 0
vn 1 0 0
vn 0 -1 0
vn 0 1 0
vn 0 0 -1
vn 0 0 1

# texcoords
vt 0.841797 0.5
vt 0.958984 0.5
vt 0.990234 0.5
vt 0.994141 0.5

# verts
v -1 -3.5 -0.3
v -1 -1.5 -0.3
v -1 -3.5 0.5
v -1 -1.5 0.5
v 1 -3.5 -0.3
v 1 -1.5 -0.3
v 1 -3.5 0.5
v 1 -1.5 0.5
v -1 -3.5 -0.3
v -1 -3.5 0.5
v -0.8 -3.5 -0.2
v -0.8 -3.5 -0.1
v -0.8 -3.5 0.3
v -0.8 -3.5 0.4
v -0.6 -3.5 -0.1
v -0.6 -3.5 0.3
v -0.1 -3.5 0.4
v -0.1 -3.5 0.5
v 0 -3.5 0.4
v 0 -3.5 0.5
v 0.6 -3.5 -0.1
v 0.6 -3.5 0.3
v 0.8 -3.5 -0.2
v 0.8 -3.5 -0.1
v 0.8 -3.5 0.3
v 0.8 -3.5 0.4
v 1 -3.5 -0.3
v 1 -3.5 0.5
v -1 -1.5 -0.3
v -1 -1.5 0.5
v -0.5 -1.5 0.4
v -0.5 -1.5 0.5
v -0.2 -1.5 -0.2
v -0.2 -1.5 0.4
v -0.2 -1.5 0.5
v 0.2 -1.5 -0.2
v 0.2 -1.5 0.4
v 0.2 -1.5 0.5
v 0.5 -1.5 0.4
v 0.5 -1.5 0.5
v 1 -1.5 -0.3
v 1 -1.5 0.5
v -1 -3.5 -0.3
v 1 -3.5 -0.3
v -1 -1.5 -0.3
v 1 -1.5 -0.3
v -1 -3.5 0.5
v -0.1 -3.5 0.5
v 0 -3.5 0.5
v 1 -3.5 0.5
v 0.1 -3.3 0.5
v 0.3 -3.3 0.5
v 0.1 -3.1 0.5
v 0.3 -3.1 0.5
v 0.1 -2.8 0.5
v 0.3 -2.8 0.5
v 0.1 -2.6 0.5
v 0.3 -2.6 0.5
v -0.1 -2.5 0.5
v 0 -2.5 0.5
v 0.1 -2.5 0.5
v -0.2 -2.3 0.5
v -0.1 -2.3 0.5
v 0.1 -2.3 0.5
v 0.2 -2.3 0.5
v -0.3 -2.1 0.5
v -0.2 -2.1 0.5
v 0.2 -2.1 0.5
v 0.3 -2.1 0.5
v -0.4 -1.9 0.5
v -0.3 -1.9 0.5
v 0.3 -1.9 0.5
v 0.4 -1.9 0.5
v -0.5 -1.7 0.5
v -0.4 -1.7 0.5
v 0.4 -1.7 0.5
v 0.5 -1.7 0.5
v -1 -1.5 0.5
v -0.5 -1.5 0.5
v -0.2 -1.5 0.5
v 0.2 -1.5 0.5
v 0.5 -1.5 0.5
v 1 -1.5 0.5

# faces
f 3/3/1 2/3/1 1/3/1
f 4/3/1 2/3/1 3/3/1
f 5/3/2 6/3/2 7/3/2
f 7/3/2 6/3/2 8/3/2
f 11/3/3 10/3/3 9/3/3
f 12/3/3 10/3/3 11/3/3
f 13/3/3 10/3/3 12/3/3
f 14/3/3 10/3/3 13/3/3
f 15/2/3 12/2/3 11/2/3
f 15/3/3 13/3/3 12/3/3
f 16/2/3 14/2/3 13/2/3
f 16/3/3 13/3/3 15/3/3
f 17/3/3 10/3/3 14/3/3
f 17/2/3 14/2/3 16/2/3
f 17/2/3 16/2/3 15/2/3
f 18/3/3 10/3/3 17/3/3
f 19/2/3 17/2/3 15/2/3
f 19/4/3 18/4/3 17/4/3
f 20/4/3 18/4/3 19/4/3
f 21/2/3 15/2/3 11/2/3
f 21/2/3 19/2/3 15/2/3
f 22/2/3 19/2/3 21/2/3
f 23/3/3 11/3/3 9/3/3
f 23/2/3 21/2/3 11/2/3
f 24/3/3 22/3/3 21/3/3
f 24/2/3 21/2/3 23/2/3
f 25/2/3 19/2/3 22/2/3
f 25/3/3 22/3/3 24/3/3
f 26/3/3 20/3/3 19/3/3
f 26/2/3 19/2/3 25/2/3
f 27/3/3 24/3/3 23/3/3
f 27/3/3 25/3/3 24/3/3
f 27/3/3 26/3/3 25/3/3
f 27/3/3 23/3/3 9/3/3
f 28/3/3 20/3/3 26/3/3
f 28/3/3 26/3/3 27/3/3
f 29/3/4 30/3/4 31/3/4
f 31/3/4 30/3/4 32/3/4
f 29/3/4 31/3/4 33/3/4
f 31/2/4 32/2/4 34/2/4
f 33/3/4 31/3/4 34/3/4
f 34/2/4 32/2/4 35/2/4
f 29/3/4 33/3/4 36/3/4
f 33/2/4 34/2/4 36/2/4
f 34/1/4 35/1/4 37/1/4
f 36/2/4 34/2/4 37/2/4
f 37/1/4 35/1/4 38/1/4
f 36/3/4 37/3/4 39/3/4
f 37/2/4 38/2/4 39/2/4
f 39/2/4 38/2/4 40/2/4
f 29/3/4 36/3/4 41/3/4
f 36/3/4 39/3/4 41/3/4
f 39/3/4 40/3/4 41/3/4
f 41/3/4 40/3/4 42/3/4
f 45/3/5 44/3/5 43/3/5
f 46/3/5 44/3/5 45/3/5
f 49/3/6 50/3/6 51/3/6
f 51/3/6 50/3/6 52/3/6
f 49/3/6 51/3/6 53/3/6
f 51/4/6 52/4/6 53/4/6
f 52/3/6 50/3/6 54/3/6
f 53/4/6 52/4/6 54/4/6
f 49/3/6 53/3/6 55/3/6
f 53/3/6 54/3/6 55/3/6
f 54/3/6 50/3/6 56/3/6
f 55/3/6 54/3/6 56/3/6
f 49/3/6 55/3/6 57/3/6
f 55/4/6 56/4/6 57/4/6
f 56/3/6 50/3/6 58/3/6
f 57/4/6 56/4/6 58/4/6
f 47/3/6 48/3/6 59/3/6
f 48/4/6 49/4/6 59/4/6
f 57/3/6 58/3/6 60/3/6
f 59/4/6 49/4/6 60/4/6
f 49/3/6 57/3/6 60/3/6
f 60/3/6 58/3/6 61/3/6
f 47/3/6 59/3/6 62/3/6
f 59/1/6 60/1/6 63/1/6
f 62/3/6 59/3/6 63/3/6
f 60/1/6 61/1/6 63/1/6
f 61/3/6 58/3/6 64/3/6
f 63/1/6 61/1/6 64/1/6
f 64/3/6 58/3/6 65/3/6
f 47/3/6 62/3/6 66/3/6
f 62/1/6 63/1/6 67/1/6
f 66/3/6 62/3/6 67/3/6
f 63/1/6 64/1/6 67/1/6
f 64/1/6 65/1/6 67/1/6
f 65/3/6 58/3/6 68/3/6
f 67/1/6 65/1/6 68/1/6
f 58/3/6 50/3/6 69/3/6
f 68/3/6 58/3/6 69/3/6
f 47/3/6 66/3/6 70/3/6
f 66/2/6 67/2/6 71/2/6
f 70/3/6 66/3/6 71/3/6
f 69/3/6 50/3/6 72/3/6
f 68/2/6 69/2/6 72/2/6
f 72/3/6 50/3/6 73/3/6
f 47/3/6 70/3/6 74/3/6
f 70/2/6 71/2/6 75/2/6
f 74/3/6 70/3/6 75/3/6
f 73/3/6 50/3/6 76/3/6
f 72/2/6 73/2/6 76/2/6
f 76/3/6 50/3/6 77/3/6
f 47/3/6 74/3/6 78/3/6
f 74/2/6 75/2/6 79/2/6
f 78/3/6 74/3/6 79/3/6
f 67/1/6 68/1/6 80/1/6
f 79/2/6 75/2/6 80/2/6
f 71/2/6 67/2/6 80/2/6
f 75/2/6 71/2/6 80/2/6
f 76/2/6 77/2/6 81/2/6
f 80/1/6 68/1/6 81/1/6
f 72/2/6 76/2/6 81/2/6
f 68/2/6 72/2/6 81/2/6
f 77/3/6 50/3/6 82/3/6
f 81/2/6 77/2/6 82/2/6
f 82/3/6 50/3/6 83/3/6
