# MagicaVoxel @ Ephtracy

# group
o 

# material
mtllib untitled.mtl
usemtl palette

# normals
vn -1 0 0
vn 1 0 0
vn 0 0 1
vn 0 0 -1
vn 0 -1 0
vn 0 1 0

# texcoords
vt 0.775391 0.5
vt 0.845703 0.5
vt 0.994141 0.5

# verts
v -0.2 0.8 0.6
v -0.2 0.8 0.2
v -0.2 1.3 0.6
v -0.2 1.3 0.2
v -0.1 0 0.5
v -0.1 0 0.3
v -0.1 0.2 0.3
v -0.1 0.2 0.2
v -0.1 0.3 0.3
v -0.1 0.3 0.2
v -0.1 0.3 0.1
v -0.1 0.4 0.2
v -0.1 0.4 0.1
v -0.1 0.4 5.96046e-08
v -0.1 0.5 0.3
v -0.1 0.5 0.1
v -0.1 0.5 5.96046e-08
v -0.1 0.5 -0.5
v -0.1 0.7 0.5
v -0.1 0.7 0.3
v -0.1 0.7 -0.5
v -0.1 0.8 0.5
v -0.1 0.8 0.3
v 0 0.3 0.2
v 0 0.3 0.1
v 0 0.4 0.2
v 0 0.4 0.1
v 0.1 0 0.5
v 0.1 0 0.3
v 0.1 0.2 0.3
v 0.1 0.2 0.2
v 0.1 0.3 0.3
v 0.1 0.3 0.2
v 0.1 0.4 0.1
v 0.1 0.4 5.96046e-08
v 0.1 0.5 0.3
v 0.1 0.5 0.1
v 0.1 0.5 5.96046e-08
v 0.1 0.5 -0.5
v 0.1 0.7 0.5
v 0.1 0.7 0.3
v 0.1 0.7 -0.5
v 0.1 0.8 0.5
v 0.1 0.8 0.3
v 0.2 0.8 0.6
v 0.2 0.8 0.2
v 0.2 1.3 0.6
v 0.2 1.3 0.2
v -0.2 0.8 0.6
v -0.2 1.3 0.6
v 0.2 0.8 0.6
v 0.2 1.3 0.6
v -0.1 0 0.5
v -0.1 0.7 0.5
v -0.1 0.8 0.5
v 0.1 0 0.5
v 0.1 0.7 0.5
v 0.1 0.8 0.5
v -0.1 0.3 0.2
v -0.1 0.4 0.2
v 0 0.3 0.2
v 0 0.4 0.2
v -0.1 0.4 0.1
v -0.1 0.5 0.1
v 0 0.4 0.1
v 0.1 0.4 0.1
v 0.1 0.5 0.1
v -0.1 0 0.3
v -0.1 0.2 0.3
v -0.1 0.3 0.3
v -0.1 0.5 0.3
v -0.1 0.7 0.3
v -0.1 0.8 0.3
v 0.1 0 0.3
v 0.1 0.2 0.3
v 0.1 0.3 0.3
v 0.1 0.5 0.3
v 0.1 0.7 0.3
v 0.1 0.8 0.3
v -0.2 0.8 0.2
v -0.2 1.3 0.2
v -0.1 0.2 0.2
v -0.1 0.3 0.2
v 0 0.3 0.2
v 0.1 0.2 0.2
v 0.1 0.3 0.2
v 0.2 0.8 0.2
v 0.2 1.3 0.2
v -0.1 0.3 0.1
v -0.1 0.4 0.1
v 0 0.3 0.1
v 0 0.4 0.1
v -0.1 0.4 5.96046e-08
v -0.1 0.5 5.96046e-08
v 0.1 0.4 5.96046e-08
v 0.1 0.5 5.96046e-08
v -0.1 0.5 -0.5
v -0.1 0.7 -0.5
v 0.1 0.5 -0.5
v 0.1 0.7 -0.5
v -0.1 0 0.5
v 0.1 0 0.5
v -0.1 0 0.3
v 0.1 0 0.3
v -0.1 0.2 0.3
v 0.1 0.2 0.3
v -0.1 0.2 0.2
v 0.1 0.2 0.2
v -0.1 0.3 0.2
v 0 0.3 0.2
v -0.1 0.3 0.1
v 0 0.3 0.1
v -0.1 0.4 0.1
v 0 0.4 0.1
v 0.1 0.4 0.1
v -0.1 0.4 5.96046e-08
v 0.1 0.4 5.96046e-08
v -0.1 0.5 0.3
v 0.1 0.5 0.3
v -0.1 0.5 0.1
v 0.1 0.5 0.1
v -0.1 0.5 5.96046e-08
v 0.1 0.5 5.96046e-08
v -0.1 0.5 -0.5
v 0.1 0.5 -0.5
v -0.2 0.8 0.6
v 0.2 0.8 0.6
v -0.1 0.8 0.5
v 0.1 0.8 0.5
v -0.1 0.8 0.3
v 0.1 0.8 0.3
v -0.2 0.8 0.2
v 0.2 0.8 0.2
v -0.1 0.3 0.3
v 0.1 0.3 0.3
v -0.1 0.3 0.2
v 0 0.3 0.2
v 0.1 0.3 0.2
v -0.1 0.4 0.2
v 0 0.4 0.2
v -0.1 0.4 0.1
v 0 0.4 0.1
v -0.1 0.7 0.3
v 0.1 0.7 0.3
v -0.1 0.7 -0.5
v 0.1 0.7 -0.5
v -0.2 1.3 0.6
v 0.2 1.3 0.6
v -0.2 1.3 0.2
v 0.2 1.3 0.2

# faces
f 3/1/1 2/1/1 1/1/1
f 4/1/1 2/1/1 3/1/1
f 7/2/1 6/2/1 5/2/1
f 9/2/1 7/2/1 5/2/1
f 9/2/1 8/2/1 7/2/1
f 10/2/1 8/2/1 9/2/1
f 12/2/1 11/2/1 10/2/1
f 13/2/1 11/2/1 12/2/1
f 15/2/1 9/2/1 5/2/1
f 16/2/1 14/2/1 13/2/1
f 17/2/1 14/2/1 16/2/1
f 19/2/1 15/2/1 5/2/1
f 19/2/1 18/2/1 17/2/1
f 19/2/1 17/2/1 16/2/1
f 19/2/1 16/2/1 15/2/1
f 20/2/1 18/2/1 19/2/1
f 21/2/1 18/2/1 20/2/1
f 22/3/1 20/3/1 19/3/1
f 23/3/1 20/3/1 22/3/1
f 24/2/2 25/2/2 26/2/2
f 26/2/2 25/2/2 27/2/2
f 28/2/2 29/2/2 30/2/2
f 28/2/2 30/2/2 32/2/2
f 30/2/2 31/2/2 32/2/2
f 32/2/2 31/2/2 33/2/2
f 28/2/2 32/2/2 36/2/2
f 34/2/2 35/2/2 37/2/2
f 37/2/2 35/2/2 38/2/2
f 28/2/2 36/2/2 40/2/2
f 38/2/2 39/2/2 40/2/2
f 37/2/2 38/2/2 40/2/2
f 36/2/2 37/2/2 40/2/2
f 40/2/2 39/2/2 41/2/2
f 41/2/2 39/2/2 42/2/2
f 40/3/2 41/3/2 43/3/2
f 43/3/2 41/3/2 44/3/2
f 45/1/2 46/1/2 47/1/2
f 47/1/2 46/1/2 48/1/2
f 51/1/3 50/1/3 49/1/3
f 52/1/3 50/1/3 51/1/3
f 56/2/3 54/2/3 53/2/3
f 57/3/3 55/3/3 54/3/3
f 57/2/3 54/2/3 56/2/3
f 58/3/3 55/3/3 57/3/3
f 61/2/3 60/2/3 59/2/3
f 62/2/3 60/2/3 61/2/3
f 65/2/3 64/2/3 63/2/3
f 66/2/3 64/2/3 65/2/3
f 67/2/3 64/2/3 66/2/3
f 68/2/4 69/2/4 74/2/4
f 74/2/4 69/2/4 75/2/4
f 70/2/4 71/2/4 76/2/4
f 76/2/4 71/2/4 77/2/4
f 72/3/4 73/3/4 78/3/4
f 78/3/4 73/3/4 79/3/4
f 82/2/4 83/2/4 84/2/4
f 82/2/4 84/2/4 85/2/4
f 85/2/4 84/2/4 86/2/4
f 80/1/4 81/1/4 87/1/4
f 87/1/4 81/1/4 88/1/4
f 89/2/4 90/2/4 91/2/4
f 91/2/4 90/2/4 92/2/4
f 93/2/4 94/2/4 95/2/4
f 95/2/4 94/2/4 96/2/4
f 97/2/4 98/2/4 99/2/4
f 99/2/4 98/2/4 100/2/4
f 103/2/5 102/2/5 101/2/5
f 104/2/5 102/2/5 103/2/5
f 107/2/5 106/2/5 105/2/5
f 108/2/5 106/2/5 107/2/5
f 111/2/5 110/2/5 109/2/5
f 112/2/5 110/2/5 111/2/5
f 116/2/5 114/2/5 113/2/5
f 116/2/5 115/2/5 114/2/5
f 117/2/5 115/2/5 116/2/5
f 120/2/5 119/2/5 118/2/5
f 121/2/5 119/2/5 120/2/5
f 124/2/5 123/2/5 122/2/5
f 125/2/5 123/2/5 124/2/5
f 128/1/5 127/1/5 126/1/5
f 129/1/5 127/1/5 128/1/5
f 130/1/5 128/1/5 126/1/5
f 131/1/5 127/1/5 129/1/5
f 132/1/5 130/1/5 126/1/5
f 132/1/5 131/1/5 130/1/5
f 133/1/5 127/1/5 131/1/5
f 133/1/5 131/1/5 132/1/5
f 134/2/6 135/2/6 136/2/6
f 136/2/6 135/2/6 137/2/6
f 137/2/6 135/2/6 138/2/6
f 139/2/6 140/2/6 141/2/6
f 141/2/6 140/2/6 142/2/6
f 143/2/6 144/2/6 145/2/6
f 145/2/6 144/2/6 146/2/6
f 147/1/6 148/1/6 149/1/6
f 149/1/6 148/1/6 150/1/6
