# MagicaVoxel @ Ephtracy

# group
o New Piskel-1

# material
mtllib watershotty.mtl
usemtl palette

# normals
vn -1 0 0
vn 1 0 0
vn 0 -1 0
vn 0 1 0
vn 0 0 -1
vn 0 0 1

# texcoords
vt 0.0683594 0.5
vt 0.751953 0.5
vt 0.841797 0.5
vt 0.958984 0.5
vt 0.994141 0.5

# verts
v -1.1 0.2 -0.5
v -1.1 0.4 -0.5
v -1.1 0.4 -0.4
v -1.1 0.5 -0.4
v -1.1 0.4 -0.2
v -1.1 0.5 -0.2
v -1.1 0.4 0
v -1.1 0.5 0
v -1.1 0.4 0.2
v -1.1 0.5 0.2
v -1.1 0.2 0.3
v -1.1 0.4 0.3
v -1 0.1 -0.5
v -1 0.2 -0.5
v -1 -0.3 -0.2
v -1 -0.2 -0.2
v -1 -0.3 0
v -1 -0.2 0
v -1 0.1 0.3
v -1 0.2 0.3
v -0.9 -0.4 -0.2
v -0.9 -0.3 -0.2
v -0.9 -0.2 -0.2
v -0.9 -0.1 -0.2
v -0.9 0 -0.2
v -0.9 0.1 -0.2
v -0.9 -0.4 0
v -0.9 -0.3 0
v -0.9 -0.2 0
v -0.9 -0.1 0
v -0.9 0 0
v -0.9 0.1 0
v -0.8 -0.1 -0.2
v -0.8 0 -0.2
v -0.8 -0.1 0
v -0.8 0 0
v -0.8 -0.4 -0.2
v -0.8 -0.3 -0.2
v -0.8 -0.4 0
v -0.8 -0.3 0
v -0.7 -0.3 -0.2
v -0.7 -0.2 -0.2
v -0.7 -0.3 0
v -0.7 -0.2 0
v -0.5 -0.2 -0.2
v -0.5 -0.1 -0.2
v -0.5 -0.2 0
v -0.5 -0.1 0
v -0.4 -0.1 -0.2
v -0.4 0.1 -0.2
v -0.4 -0.1 0
v -0.4 0.1 0
v 1 0.2 -0.4
v 1 0.3 -0.4
v 1 0.4 -0.4
v 1 0.2 -0.2
v 1 0.3 -0.2
v 1 0.4 -0.2
v 1 0.2 0
v 1 0.3 0
v 1 0.4 0
v 1 0.2 0.2
v 1 0.3 0.2
v 1 0.4 0.2
v 1.1 0.1 -0.5
v 1.1 0.2 -0.5
v 1.1 0.2 -0.4
v 1.1 0.2 -0.2
v 1.1 0.2 0
v 1.1 0.2 0.2
v 1.1 0.1 0.3
v 1.1 0.2 0.3
v 1.2 0.2 -0.5
v 1.2 0.4 -0.5
v 1.2 0.2 -0.4
v 1.2 0.4 -0.4
v 1.2 0.5 -0.4
v 1.2 0.2 -0.2
v 1.2 0.4 -0.2
v 1.2 0.5 -0.2
v 1.2 0.2 0
v 1.2 0.4 0
v 1.2 0.5 0
v 1.2 0.2 0.2
v 1.2 0.4 0.2
v 1.2 0.5 0.2
v 1.2 0.2 0.3
v 1.2 0.4 0.3
v -0.9 -0.4 -0.2
v -0.9 -0.4 0
v -0.8 -0.4 -0.2
v -0.8 -0.4 0
v -1 -0.3 -0.2
v -1 -0.3 0
v -0.9 -0.3 -0.2
v -0.9 -0.3 0
v -0.8 -0.3 -0.2
v -0.8 -0.3 0
v -0.7 -0.3 -0.2
v -0.7 -0.3 0
v -0.7 -0.2 -0.2
v -0.7 -0.2 0
v -0.5 -0.2 -0.2
v -0.5 -0.2 0
v -0.5 -0.1 -0.2
v -0.5 -0.1 0
v -0.4 -0.1 -0.2
v -0.4 -0.1 0
v -0.9 0 -0.2
v -0.9 0 0
v -0.8 0 -0.2
v -0.8 0 0
v -1 0.1 -0.5
v -1 0.1 0.3
v -0.9 0.1 -0.2
v -0.9 0.1 0
v -0.4 0.1 -0.2
v -0.4 0.1 0
v 1.1 0.1 -0.5
v 1.1 0.1 0.3
v -1.1 0.2 -0.5
v -1.1 0.2 0.3
v -1 0.2 -0.5
v -1 0.2 0.3
v 1.1 0.2 -0.5
v 1.1 0.2 -0.4
v 1.1 0.2 -0.2
v 1.1 0.2 0
v 1.1 0.2 0.2
v 1.1 0.2 0.3
v 1.2 0.2 -0.5
v 1.2 0.2 -0.4
v 1.2 0.2 -0.2
v 1.2 0.2 0
v 1.2 0.2 0.2
v 1.2 0.2 0.3
v 1 0.4 -0.4
v 1 0.4 -0.2
v 1 0.4 0
v 1 0.4 0.2
v 1.1 0.4 -0.4
v 1.1 0.4 -0.2
v 1.1 0.4 0
v 1.1 0.4 0.2
v 1.2 0.4 -0.4
v 1.2 0.4 -0.2
v 1.2 0.4 0
v 1.2 0.4 0.2
v -1 -0.2 -0.2
v -1 -0.2 0
v -0.9 -0.2 -0.2
v -0.9 -0.2 0
v -0.9 -0.1 -0.2
v -0.9 -0.1 0
v -0.8 -0.1 -0.2
v -0.8 -0.1 0
v 1 0.2 -0.4
v 1 0.2 -0.2
v 1 0.2 0
v 1 0.2 0.2
v 1.1 0.2 -0.4
v 1.1 0.2 -0.2
v 1.1 0.2 0
v 1.1 0.2 0.2
v -1.1 0.4 -0.5
v -1.1 0.4 -0.4
v -1.1 0.4 -0.2
v -1.1 0.4 0
v -1.1 0.4 0.2
v -1.1 0.4 0.3
v -1 0.4 -0.5
v -1 0.4 -0.4
v -1 0.4 -0.2
v -1 0.4 0
v -1 0.4 0.2
v -1 0.4 0.3
v -0.4 0.4 -0.5
v -0.4 0.4 -0.4
v -0.4 0.4 -0.2
v -0.4 0.4 0
v -0.4 0.4 0.2
v -0.4 0.4 0.3
v -0.3 0.4 -0.5
v -0.3 0.4 -0.4
v -0.3 0.4 -0.2
v -0.3 0.4 0
v -0.3 0.4 0.2
v -0.3 0.4 0.3
v -0.2 0.4 -0.5
v -0.2 0.4 -0.4
v -0.2 0.4 -0.2
v -0.2 0.4 0
v -0.2 0.4 0.2
v -0.2 0.4 0.3
v -0.1 0.4 -0.5
v -0.1 0.4 -0.4
v -0.1 0.4 -0.2
v -0.1 0.4 0
v -0.1 0.4 0.2
v -0.1 0.4 0.3
v 0 0.4 -0.5
v 0 0.4 -0.4
v 0 0.4 -0.2
v 0 0.4 0
v 0 0.4 0.2
v 0 0.4 0.3
v 0.1 0.4 -0.5
v 0.1 0.4 -0.4
v 0.1 0.4 -0.2
v 0.1 0.4 0
v 0.1 0.4 0.2
v 0.1 0.4 0.3
v 0.2 0.4 -0.5
v 0.2 0.4 -0.4
v 0.2 0.4 -0.2
v 0.2 0.4 0
v 0.2 0.4 0.2
v 0.2 0.4 0.3
v 0.3 0.4 -0.5
v 0.3 0.4 -0.4
v 0.3 0.4 -0.2
v 0.3 0.4 0
v 0.3 0.4 0.2
v 0.3 0.4 0.3
v 0.4 0.4 -0.5
v 0.4 0.4 -0.4
v 0.4 0.4 -0.2
v 0.4 0.4 0
v 0.4 0.4 0.2
v 0.4 0.4 0.3
v 0.5 0.4 -0.5
v 0.5 0.4 -0.4
v 0.5 0.4 -0.2
v 0.5 0.4 0
v 0.5 0.4 0.2
v 0.5 0.4 0.3
v 0.6 0.4 -0.5
v 0.6 0.4 -0.4
v 0.6 0.4 -0.2
v 0.6 0.4 0
v 0.6 0.4 0.2
v 0.6 0.4 0.3
v 0.7 0.4 -0.5
v 0.7 0.4 -0.4
v 0.7 0.4 -0.2
v 0.7 0.4 0
v 0.7 0.4 0.2
v 0.7 0.4 0.3
v 0.8 0.4 -0.5
v 0.8 0.4 -0.4
v 0.8 0.4 -0.2
v 0.8 0.4 0
v 0.8 0.4 0.2
v 0.8 0.4 0.3
v 0.9 0.4 -0.5
v 0.9 0.4 -0.4
v 0.9 0.4 -0.2
v 0.9 0.4 0
v 0.9 0.4 0.2
v 0.9 0.4 0.3
v 1 0.4 -0.5
v 1 0.4 -0.4
v 1 0.4 -0.2
v 1 0.4 0
v 1 0.4 0.2
v 1 0.4 0.3
v 1.1 0.4 -0.5
v 1.1 0.4 -0.4
v 1.1 0.4 -0.2
v 1.1 0.4 0
v 1.1 0.4 0.2
v 1.1 0.4 0.3
v 1.2 0.4 -0.5
v 1.2 0.4 -0.4
v 1.2 0.4 -0.2
v 1.2 0.4 0
v 1.2 0.4 0.2
v 1.2 0.4 0.3
v -1.1 0.5 -0.4
v -1.1 0.5 -0.2
v -1.1 0.5 0
v -1.1 0.5 0.2
v -1 0.5 -0.4
v -1 0.5 -0.2
v -1 0.5 0
v -1 0.5 0.2
v -0.4 0.5 -0.4
v -0.4 0.5 -0.2
v -0.4 0.5 0
v -0.4 0.5 0.2
v -0.3 0.5 -0.4
v -0.3 0.5 -0.2
v -0.3 0.5 0
v -0.3 0.5 0.2
v -0.2 0.5 -0.4
v -0.2 0.5 -0.2
v -0.2 0.5 0
v -0.2 0.5 0.2
v 1.1 0.5 -0.4
v 1.1 0.5 -0.2
v 1.1 0.5 0
v 1.1 0.5 0.2
v 1.2 0.5 -0.4
v 1.2 0.5 -0.2
v 1.2 0.5 0
v 1.2 0.5 0.2
v -1 0.1 -0.5
v 1.1 0.1 -0.5
v -1.1 0.2 -0.5
v -1 0.2 -0.5
v -0.4 0.2 -0.5
v -0.3 0.2 -0.5
v -0.1 0.2 -0.5
v 0 0.2 -0.5
v 0.1 0.2 -0.5
v 0.2 0.2 -0.5
v 0.3 0.2 -0.5
v 0.4 0.2 -0.5
v 0.5 0.2 -0.5
v 0.6 0.2 -0.5
v 0.7 0.2 -0.5
v 0.8 0.2 -0.5
v 0.9 0.2 -0.5
v 1 0.2 -0.5
v 1.1 0.2 -0.5
v 1.2 0.2 -0.5
v -0.2 0.3 -0.5
v -0.1 0.3 -0.5
v 0 0.3 -0.5
v 0.1 0.3 -0.5
v 0.2 0.3 -0.5
v 0.3 0.3 -0.5
v 0.4 0.3 -0.5
v 0.5 0.3 -0.5
v 0.6 0.3 -0.5
v 0.7 0.3 -0.5
v 0.8 0.3 -0.5
v 0.9 0.3 -0.5
v 1 0.3 -0.5
v 1.1 0.3 -0.5
v -1.1 0.4 -0.5
v -1 0.4 -0.5
v -0.4 0.4 -0.5
v -0.3 0.4 -0.5
v -0.2 0.4 -0.5
v -0.1 0.4 -0.5
v 0 0.4 -0.5
v 0.1 0.4 -0.5
v 0.2 0.4 -0.5
v 0.3 0.4 -0.5
v 0.4 0.4 -0.5
v 0.5 0.4 -0.5
v 0.6 0.4 -0.5
v 0.7 0.4 -0.5
v 0.8 0.4 -0.5
v 0.9 0.4 -0.5
v 1 0.4 -0.5
v 1.1 0.4 -0.5
v 1.2 0.4 -0.5
v -1.1 0.4 -0.4
v -1 0.4 -0.4
v -0.4 0.4 -0.4
v -0.3 0.4 -0.4
v -0.2 0.4 -0.4
v -0.1 0.4 -0.4
v 0 0.4 -0.4
v 0.1 0.4 -0.4
v 0.2 0.4 -0.4
v 0.3 0.4 -0.4
v 0.4 0.4 -0.4
v 0.5 0.4 -0.4
v 0.6 0.4 -0.4
v 0.7 0.4 -0.4
v 0.8 0.4 -0.4
v 0.9 0.4 -0.4
v 1 0.4 -0.4
v 1.1 0.4 -0.4
v 1.2 0.4 -0.4
v -1.1 0.5 -0.4
v -1 0.5 -0.4
v -0.4 0.5 -0.4
v -0.3 0.5 -0.4
v -0.2 0.5 -0.4
v 1.1 0.5 -0.4
v 1.2 0.5 -0.4
v -0.9 -0.4 -0.2
v -0.8 -0.4 -0.2
v -1 -0.3 -0.2
v -0.9 -0.3 -0.2
v -0.8 -0.3 -0.2
v -0.7 -0.3 -0.2
v -1 -0.2 -0.2
v -0.9 -0.2 -0.2
v -0.7 -0.2 -0.2
v -0.5 -0.2 -0.2
v -0.9 -0.1 -0.2
v -0.8 -0.1 -0.2
v -0.5 -0.1 -0.2
v -0.4 -0.1 -0.2
v -0.9 0 -0.2
v -0.8 0 -0.2
v -0.9 0.1 -0.2
v -0.4 0.1 -0.2
v 1 0.2 -0.2
v 1.1 0.2 -0.2
v 1.2 0.2 -0.2
v 1 0.3 -0.2
v 1.1 0.3 -0.2
v 1 0.4 -0.2
v 1.1 0.4 -0.2
v 1.2 0.4 -0.2
v -1.1 0.4 0
v -1 0.4 0
v -0.4 0.4 0
v -0.3 0.4 0
v -0.2 0.4 0
v -0.1 0.4 0
v 0 0.4 0
v 0.1 0.4 0
v 0.2 0.4 0
v 0.3 0.4 0
v 0.4 0.4 0
v 0.5 0.4 0
v 0.6 0.4 0
v 0.7 0.4 0
v 0.8 0.4 0
v 0.9 0.4 0
v 1 0.4 0
v 1.1 0.4 0
v 1.2 0.4 0
v -1.1 0.5 0
v -1 0.5 0
v -0.4 0.5 0
v -0.3 0.5 0
v -0.2 0.5 0
v 1.1 0.5 0
v 1.2 0.5 0
v 1 0.2 0.2
v 1.1 0.2 0.2
v 1.2 0.2 0.2
v 1 0.3 0.2
v 1.1 0.3 0.2
v 1 0.4 0.2
v 1.1 0.4 0.2
v 1.2 0.4 0.2
v 1 0.2 -0.4
v 1.1 0.2 -0.4
v 1.2 0.2 -0.4
v 1 0.3 -0.4
v 1.1 0.3 -0.4
v 1 0.4 -0.4
v 1.1 0.4 -0.4
v 1.2 0.4 -0.4
v -1.1 0.4 -0.2
v -1 0.4 -0.2
v -0.4 0.4 -0.2
v -0.3 0.4 -0.2
v -0.2 0.4 -0.2
v -0.1 0.4 -0.2
v 0 0.4 -0.2
v 0.1 0.4 -0.2
v 0.2 0.4 -0.2
v 0.3 0.4 -0.2
v 0.4 0.4 -0.2
v 0.5 0.4 -0.2
v 0.6 0.4 -0.2
v 0.7 0.4 -0.2
v 0.8 0.4 -0.2
v 0.9 0.4 -0.2
v 1 0.4 -0.2
v 1.1 0.4 -0.2
v 1.2 0.4 -0.2
v -1.1 0.5 -0.2
v -1 0.5 -0.2
v -0.4 0.5 -0.2
v -0.3 0.5 -0.2
v -0.2 0.5 -0.2
v 1.1 0.5 -0.2
v 1.2 0.5 -0.2
v -0.9 -0.4 0
v -0.8 -0.4 0
v -1 -0.3 0
v -0.9 -0.3 0
v -0.8 -0.3 0
v -0.7 -0.3 0
v -1 -0.2 0
v -0.9 -0.2 0
v -0.7 -0.2 0
v -0.5 -0.2 0
v -0.9 -0.1 0
v -0.8 -0.1 0
v -0.5 -0.1 0
v -0.4 -0.1 0
v -0.9 0 0
v -0.8 0 0
v -0.9 0.1 0
v -0.4 0.1 0
v 1 0.2 0
v 1.1 0.2 0
v 1.2 0.2 0
v 1 0.3 0
v 1.1 0.3 0
v 1 0.4 0
v 1.1 0.4 0
v 1.2 0.4 0
v -1.1 0.4 0.2
v -1 0.4 0.2
v -0.4 0.4 0.2
v -0.3 0.4 0.2
v -0.2 0.4 0.2
v -0.1 0.4 0.2
v 0 0.4 0.2
v 0.1 0.4 0.2
v 0.2 0.4 0.2
v 0.3 0.4 0.2
v 0.4 0.4 0.2
v 0.5 0.4 0.2
v 0.6 0.4 0.2
v 0.7 0.4 0.2
v 0.8 0.4 0.2
v 0.9 0.4 0.2
v 1 0.4 0.2
v 1.1 0.4 0.2
v 1.2 0.4 0.2
v -1.1 0.5 0.2
v -1 0.5 0.2
v -0.4 0.5 0.2
v -0.3 0.5 0.2
v -0.2 0.5 0.2
v 1.1 0.5 0.2
v 1.2 0.5 0.2
v -1 0.1 0.3
v 1.1 0.1 0.3
v -1.1 0.2 0.3
v -1 0.2 0.3
v -0.4 0.2 0.3
v -0.3 0.2 0.3
v -0.1 0.2 0.3
v 0 0.2 0.3
v 0.1 0.2 0.3
v 0.2 0.2 0.3
v 0.3 0.2 0.3
v 0.4 0.2 0.3
v 0.5 0.2 0.3
v 0.6 0.2 0.3
v 0.7 0.2 0.3
v 0.8 0.2 0.3
v 0.9 0.2 0.3
v 1 0.2 0.3
v 1.1 0.2 0.3
v 1.2 0.2 0.3
v -0.2 0.3 0.3
v -0.1 0.3 0.3
v 0 0.3 0.3
v 0.1 0.3 0.3
v 0.2 0.3 0.3
v 0.3 0.3 0.3
v 0.4 0.3 0.3
v 0.5 0.3 0.3
v 0.6 0.3 0.3
v 0.7 0.3 0.3
v 0.8 0.3 0.3
v 0.9 0.3 0.3
v 1 0.3 0.3
v 1.1 0.3 0.3
v -1.1 0.4 0.3
v -1 0.4 0.3
v -0.4 0.4 0.3
v -0.3 0.4 0.3
v -0.2 0.4 0.3
v -0.1 0.4 0.3
v 0 0.4 0.3
v 0.1 0.4 0.3
v 0.2 0.4 0.3
v 0.3 0.4 0.3
v 0.4 0.4 0.3
v 0.5 0.4 0.3
v 0.6 0.4 0.3
v 0.7 0.4 0.3
v 0.8 0.4 0.3
v 0.9 0.4 0.3
v 1 0.4 0.3
v 1.1 0.4 0.3
v 1.2 0.4 0.3

# faces
f 3/5/1 2/5/1 1/5/1
f 5/5/1 3/5/1 1/5/1
f 5/5/1 4/5/1 3/5/1
f 6/5/1 4/5/1 5/5/1
f 7/5/1 5/5/1 1/5/1
f 9/5/1 7/5/1 1/5/1
f 9/5/1 8/5/1 7/5/1
f 10/5/1 8/5/1 9/5/1
f 11/5/1 9/5/1 1/5/1
f 12/5/1 9/5/1 11/5/1
f 17/5/1 16/5/1 15/5/1
f 18/5/1 16/5/1 17/5/1
f 19/5/1 14/5/1 13/5/1
f 20/5/1 14/5/1 19/5/1
f 27/5/1 22/5/1 21/5/1
f 28/5/1 22/5/1 27/5/1
f 29/5/1 24/5/1 23/5/1
f 30/5/1 24/5/1 29/5/1
f 31/5/1 26/5/1 25/5/1
f 32/5/1 26/5/1 31/5/1
f 35/5/1 34/5/1 33/5/1
f 36/5/1 34/5/1 35/5/1
f 37/5/2 38/5/2 39/5/2
f 39/5/2 38/5/2 40/5/2
f 41/5/2 42/5/2 43/5/2
f 43/5/2 42/5/2 44/5/2
f 45/5/2 46/5/2 47/5/2
f 47/5/2 46/5/2 48/5/2
f 49/5/2 50/5/2 51/5/2
f 51/5/2 50/5/2 52/5/2
f 53/5/2 54/5/2 56/5/2
f 54/5/2 55/5/2 56/5/2
f 56/5/2 55/5/2 57/5/2
f 57/5/2 55/5/2 58/5/2
f 59/5/2 60/5/2 62/5/2
f 60/5/2 61/5/2 62/5/2
f 62/5/2 61/5/2 63/5/2
f 63/5/2 61/5/2 64/5/2
f 65/5/2 66/5/2 67/5/2
f 65/5/2 67/5/2 68/5/2
f 65/5/2 68/5/2 69/5/2
f 65/5/2 69/5/2 70/5/2
f 65/5/2 70/5/2 71/5/2
f 71/5/2 70/5/2 72/5/2
f 73/1/2 74/1/2 75/1/2
f 75/1/2 74/1/2 76/1/2
f 76/1/2 77/1/2 79/1/2
f 79/1/2 77/1/2 80/1/2
f 78/1/2 79/1/2 81/1/2
f 81/1/2 79/1/2 82/1/2
f 82/1/2 83/1/2 85/1/2
f 85/1/2 83/1/2 86/1/2
f 84/1/2 85/1/2 87/1/2
f 87/1/2 85/1/2 88/1/2
f 91/5/3 90/5/3 89/5/3
f 92/5/3 90/5/3 91/5/3
f 95/5/3 94/5/3 93/5/3
f 96/5/3 94/5/3 95/5/3
f 99/5/3 98/5/3 97/5/3
f 100/5/3 98/5/3 99/5/3
f 103/5/3 102/5/3 101/5/3
f 104/5/3 102/5/3 103/5/3
f 107/5/3 106/5/3 105/5/3
f 108/5/3 106/5/3 107/5/3
f 111/5/3 110/5/3 109/5/3
f 112/5/3 110/5/3 111/5/3
f 115/5/3 114/5/3 113/5/3
f 116/5/3 114/5/3 115/5/3
f 117/5/3 115/5/3 113/5/3
f 118/5/3 114/5/3 116/5/3
f 119/5/3 117/5/3 113/5/3
f 119/5/3 118/5/3 117/5/3
f 120/5/3 114/5/3 118/5/3
f 120/5/3 118/5/3 119/5/3
f 123/5/3 122/5/3 121/5/3
f 124/5/3 122/5/3 123/5/3
f 131/1/3 126/1/3 125/1/3
f 132/1/3 126/1/3 131/1/3
f 133/1/3 128/1/3 127/1/3
f 134/1/3 128/1/3 133/1/3
f 135/1/3 130/1/3 129/1/3
f 136/1/3 130/1/3 135/1/3
f 141/4/3 138/4/3 137/4/3
f 142/4/3 138/4/3 141/4/3
f 143/4/3 140/4/3 139/4/3
f 144/4/3 140/4/3 143/4/3
f 145/1/3 142/1/3 141/1/3
f 146/1/3 142/1/3 145/1/3
f 147/1/3 144/1/3 143/1/3
f 148/1/3 144/1/3 147/1/3
f 149/5/4 150/5/4 151/5/4
f 151/5/4 150/5/4 152/5/4
f 153/5/4 154/5/4 155/5/4
f 155/5/4 154/5/4 156/5/4
f 157/5/4 158/5/4 161/5/4
f 161/5/4 158/5/4 162/5/4
f 159/5/4 160/5/4 163/5/4
f 163/5/4 160/5/4 164/5/4
f 165/5/4 166/5/4 171/5/4
f 171/5/4 166/5/4 172/5/4
f 167/5/4 168/5/4 173/5/4
f 173/5/4 168/5/4 174/5/4
f 169/5/4 170/5/4 175/5/4
f 175/5/4 170/5/4 176/5/4
f 171/3/4 172/3/4 177/3/4
f 177/3/4 172/3/4 178/3/4
f 173/3/4 174/3/4 179/3/4
f 179/3/4 174/3/4 180/3/4
f 175/3/4 176/3/4 181/3/4
f 181/3/4 176/3/4 182/3/4
f 177/5/4 178/5/4 183/5/4
f 183/5/4 178/5/4 184/5/4
f 179/5/4 180/5/4 185/5/4
f 185/5/4 180/5/4 186/5/4
f 181/5/4 182/5/4 187/5/4
f 187/5/4 182/5/4 188/5/4
f 183/2/4 184/2/4 189/2/4
f 189/2/4 184/2/4 190/2/4
f 185/2/4 186/2/4 191/2/4
f 191/2/4 186/2/4 192/2/4
f 187/2/4 188/2/4 193/2/4
f 193/2/4 188/2/4 194/2/4
f 189/3/4 190/3/4 195/3/4
f 195/3/4 190/3/4 196/3/4
f 191/3/4 192/3/4 197/3/4
f 197/3/4 192/3/4 198/3/4
f 193/3/4 194/3/4 199/3/4
f 199/3/4 194/3/4 200/3/4
f 195/2/4 196/2/4 201/2/4
f 201/2/4 196/2/4 202/2/4
f 197/2/4 198/2/4 203/2/4
f 203/2/4 198/2/4 204/2/4
f 199/2/4 200/2/4 205/2/4
f 205/2/4 200/2/4 206/2/4
f 201/3/4 202/3/4 207/3/4
f 207/3/4 202/3/4 208/3/4
f 203/3/4 204/3/4 209/3/4
f 209/3/4 204/3/4 210/3/4
f 205/3/4 206/3/4 211/3/4
f 211/3/4 206/3/4 212/3/4
f 207/2/4 208/2/4 213/2/4
f 213/2/4 208/2/4 214/2/4
f 209/2/4 210/2/4 215/2/4
f 215/2/4 210/2/4 216/2/4
f 211/2/4 212/2/4 217/2/4
f 217/2/4 212/2/4 218/2/4
f 213/3/4 214/3/4 219/3/4
f 219/3/4 214/3/4 220/3/4
f 215/3/4 216/3/4 221/3/4
f 221/3/4 216/3/4 222/3/4
f 217/3/4 218/3/4 223/3/4
f 223/3/4 218/3/4 224/3/4
f 219/2/4 220/2/4 225/2/4
f 225/2/4 220/2/4 226/2/4
f 221/2/4 222/2/4 227/2/4
f 227/2/4 222/2/4 228/2/4
f 223/2/4 224/2/4 229/2/4
f 229/2/4 224/2/4 230/2/4
f 225/3/4 226/3/4 231/3/4
f 231/3/4 226/3/4 232/3/4
f 227/3/4 228/3/4 233/3/4
f 233/3/4 228/3/4 234/3/4
f 229/3/4 230/3/4 235/3/4
f 235/3/4 230/3/4 236/3/4
f 231/2/4 232/2/4 237/2/4
f 237/2/4 232/2/4 238/2/4
f 233/2/4 234/2/4 239/2/4
f 239/2/4 234/2/4 240/2/4
f 235/2/4 236/2/4 241/2/4
f 241/2/4 236/2/4 242/2/4
f 237/3/4 238/3/4 243/3/4
f 243/3/4 238/3/4 244/3/4
f 239/3/4 240/3/4 245/3/4
f 245/3/4 240/3/4 246/3/4
f 241/3/4 242/3/4 247/3/4
f 247/3/4 242/3/4 248/3/4
f 243/2/4 244/2/4 249/2/4
f 249/2/4 244/2/4 250/2/4
f 245/2/4 246/2/4 251/2/4
f 251/2/4 246/2/4 252/2/4
f 247/2/4 248/2/4 253/2/4
f 253/2/4 248/2/4 254/2/4
f 249/3/4 250/3/4 255/3/4
f 255/3/4 250/3/4 256/3/4
f 251/3/4 252/3/4 257/3/4
f 257/3/4 252/3/4 258/3/4
f 253/3/4 254/3/4 259/3/4
f 259/3/4 254/3/4 260/3/4
f 255/2/4 256/2/4 261/2/4
f 261/2/4 256/2/4 262/2/4
f 257/2/4 258/2/4 263/2/4
f 263/2/4 258/2/4 264/2/4
f 259/2/4 260/2/4 265/2/4
f 265/2/4 260/2/4 266/2/4
f 261/3/4 262/3/4 267/3/4
f 267/3/4 262/3/4 268/3/4
f 263/3/4 264/3/4 269/3/4
f 269/3/4 264/3/4 270/3/4
f 265/3/4 266/3/4 271/3/4
f 271/3/4 266/3/4 272/3/4
f 267/1/4 268/1/4 273/1/4
f 273/1/4 268/1/4 274/1/4
f 269/1/4 270/1/4 275/1/4
f 275/1/4 270/1/4 276/1/4
f 271/1/4 272/1/4 277/1/4
f 277/1/4 272/1/4 278/1/4
f 279/5/4 280/5/4 283/5/4
f 283/5/4 280/5/4 284/5/4
f 281/5/4 282/5/4 285/5/4
f 285/5/4 282/5/4 286/5/4
f 283/4/4 284/4/4 287/4/4
f 287/4/4 284/4/4 288/4/4
f 285/4/4 286/4/4 289/4/4
f 289/4/4 286/4/4 290/4/4
f 287/5/4 288/5/4 291/5/4
f 291/5/4 288/5/4 292/5/4
f 289/5/4 290/5/4 293/5/4
f 293/5/4 290/5/4 294/5/4
f 291/2/4 292/2/4 295/2/4
f 295/2/4 292/2/4 296/2/4
f 293/2/4 294/2/4 297/2/4
f 297/2/4 294/2/4 298/2/4
f 295/4/4 296/4/4 299/4/4
f 299/4/4 296/4/4 300/4/4
f 297/4/4 298/4/4 301/4/4
f 301/4/4 298/4/4 302/4/4
f 299/1/4 300/1/4 303/1/4
f 303/1/4 300/1/4 304/1/4
f 301/1/4 302/1/4 305/1/4
f 305/1/4 302/1/4 306/1/4
f 310/5/5 308/5/5 307/5/5
f 311/5/5 308/5/5 310/5/5
f 312/5/5 308/5/5 311/5/5
f 313/5/5 308/5/5 312/5/5
f 314/5/5 308/5/5 313/5/5
f 315/5/5 308/5/5 314/5/5
f 316/5/5 308/5/5 315/5/5
f 317/5/5 308/5/5 316/5/5
f 318/5/5 308/5/5 317/5/5
f 319/5/5 308/5/5 318/5/5
f 320/5/5 308/5/5 319/5/5
f 321/5/5 308/5/5 320/5/5
f 322/5/5 308/5/5 321/5/5
f 323/5/5 308/5/5 322/5/5
f 324/5/5 308/5/5 323/5/5
f 325/5/5 308/5/5 324/5/5
f 327/2/5 313/2/5 312/2/5
f 328/3/5 314/3/5 313/3/5
f 328/2/5 313/2/5 327/2/5
f 329/2/5 315/2/5 314/2/5
f 329/3/5 314/3/5 328/3/5
f 330/3/5 316/3/5 315/3/5
f 330/2/5 315/2/5 329/2/5
f 331/2/5 317/2/5 316/2/5
f 331/3/5 316/3/5 330/3/5
f 332/3/5 318/3/5 317/3/5
f 332/2/5 317/2/5 331/2/5
f 333/2/5 319/2/5 318/2/5
f 333/3/5 318/3/5 332/3/5
f 334/3/5 320/3/5 319/3/5
f 334/2/5 319/2/5 333/2/5
f 335/2/5 321/2/5 320/2/5
f 335/3/5 320/3/5 334/3/5
f 336/3/5 322/3/5 321/3/5
f 336/2/5 321/2/5 335/2/5
f 337/2/5 323/2/5 322/2/5
f 337/3/5 322/3/5 336/3/5
f 338/3/5 324/3/5 323/3/5
f 338/2/5 323/2/5 337/2/5
f 339/2/5 325/2/5 324/2/5
f 339/3/5 324/3/5 338/3/5
f 340/1/5 326/1/5 325/1/5
f 340/2/5 325/2/5 339/2/5
f 341/5/5 310/5/5 309/5/5
f 342/3/5 311/3/5 310/3/5
f 342/5/5 310/5/5 341/5/5
f 343/5/5 312/5/5 311/5/5
f 343/3/5 311/3/5 342/3/5
f 344/2/5 327/2/5 312/2/5
f 344/5/5 312/5/5 343/5/5
f 345/3/5 328/3/5 327/3/5
f 345/2/5 327/2/5 344/2/5
f 346/2/5 329/2/5 328/2/5
f 346/3/5 328/3/5 345/3/5
f 347/3/5 330/3/5 329/3/5
f 347/2/5 329/2/5 346/2/5
f 348/2/5 331/2/5 330/2/5
f 348/3/5 330/3/5 347/3/5
f 349/3/5 332/3/5 331/3/5
f 349/2/5 331/2/5 348/2/5
f 350/2/5 333/2/5 332/2/5
f 350/3/5 332/3/5 349/3/5
f 351/3/5 334/3/5 333/3/5
f 351/2/5 333/2/5 350/2/5
f 352/2/5 335/2/5 334/2/5
f 352/3/5 334/3/5 351/3/5
f 353/3/5 336/3/5 335/3/5
f 353/2/5 335/2/5 352/2/5
f 354/2/5 337/2/5 336/2/5
f 354/3/5 336/3/5 353/3/5
f 355/3/5 338/3/5 337/3/5
f 355/2/5 337/2/5 354/2/5
f 356/2/5 339/2/5 338/2/5
f 356/3/5 338/3/5 355/3/5
f 357/3/5 340/3/5 339/3/5
f 357/2/5 339/2/5 356/2/5
f 358/1/5 326/1/5 340/1/5
f 358/3/5 340/3/5 357/3/5
f 359/1/5 326/1/5 358/1/5
f 379/5/5 361/5/5 360/5/5
f 380/4/5 362/4/5 361/4/5
f 380/5/5 361/5/5 379/5/5
f 381/5/5 363/5/5 362/5/5
f 381/4/5 362/4/5 380/4/5
f 382/2/5 364/2/5 363/2/5
f 382/5/5 363/5/5 381/5/5
f 383/4/5 365/4/5 364/4/5
f 383/2/5 364/2/5 382/2/5
f 383/4/5 366/4/5 365/4/5
f 383/4/5 377/4/5 376/4/5
f 383/4/5 376/4/5 375/4/5
f 383/4/5 375/4/5 374/4/5
f 383/4/5 374/4/5 373/4/5
f 383/4/5 373/4/5 372/4/5
f 383/4/5 372/4/5 371/4/5
f 383/4/5 371/4/5 370/4/5
f 383/4/5 370/4/5 369/4/5
f 383/4/5 369/4/5 368/4/5
f 383/4/5 368/4/5 367/4/5
f 383/4/5 367/4/5 366/4/5
f 384/1/5 378/1/5 377/1/5
f 384/4/5 377/4/5 383/4/5
f 385/1/5 378/1/5 384/1/5
f 389/5/5 387/5/5 386/5/5
f 390/5/5 387/5/5 389/5/5
f 392/5/5 389/5/5 388/5/5
f 392/5/5 391/5/5 390/5/5
f 392/5/5 390/5/5 389/5/5
f 393/5/5 391/5/5 392/5/5
f 394/5/5 391/5/5 393/5/5
f 396/5/5 395/5/5 394/5/5
f 396/5/5 394/5/5 393/5/5
f 397/5/5 395/5/5 396/5/5
f 398/5/5 395/5/5 397/5/5
f 401/5/5 399/5/5 398/5/5
f 401/5/5 398/5/5 397/5/5
f 402/5/5 401/5/5 400/5/5
f 403/5/5 399/5/5 401/5/5
f 403/5/5 401/5/5 402/5/5
f 407/2/5 405/2/5 404/2/5
f 408/1/5 406/1/5 405/1/5
f 408/2/5 405/2/5 407/2/5
f 409/3/5 408/3/5 407/3/5
f 410/1/5 406/1/5 408/1/5
f 410/3/5 408/3/5 409/3/5
f 411/1/5 406/1/5 410/1/5
f 431/5/5 413/5/5 412/5/5
f 432/4/5 414/4/5 413/4/5
f 432/5/5 413/5/5 431/5/5
f 433/5/5 415/5/5 414/5/5
f 433/4/5 414/4/5 432/4/5
f 434/2/5 416/2/5 415/2/5
f 434/5/5 415/5/5 433/5/5
f 435/4/5 417/4/5 416/4/5
f 435/2/5 416/2/5 434/2/5
f 435/4/5 418/4/5 417/4/5
f 435/4/5 429/4/5 428/4/5
f 435/4/5 428/4/5 427/4/5
f 435/4/5 427/4/5 426/4/5
f 435/4/5 426/4/5 425/4/5
f 435/4/5 425/4/5 424/4/5
f 435/4/5 424/4/5 423/4/5
f 435/4/5 423/4/5 422/4/5
f 435/4/5 422/4/5 421/4/5
f 435/4/5 421/4/5 420/4/5
f 435/4/5 420/4/5 419/4/5
f 435/4/5 419/4/5 418/4/5
f 436/1/5 430/1/5 429/1/5
f 436/4/5 429/4/5 435/4/5
f 437/1/5 430/1/5 436/1/5
f 441/2/5 439/2/5 438/2/5
f 442/1/5 440/1/5 439/1/5
f 442/2/5 439/2/5 441/2/5
f 443/3/5 442/3/5 441/3/5
f 444/1/5 440/1/5 442/1/5
f 444/3/5 442/3/5 443/3/5
f 445/1/5 440/1/5 444/1/5
f 446/2/6 447/2/6 449/2/6
f 447/1/6 448/1/6 450/1/6
f 449/2/6 447/2/6 450/2/6
f 449/3/6 450/3/6 451/3/6
f 450/1/6 448/1/6 452/1/6
f 451/3/6 450/3/6 452/3/6
f 452/1/6 448/1/6 453/1/6
f 454/5/6 455/5/6 473/5/6
f 455/4/6 456/4/6 474/4/6
f 473/5/6 455/5/6 474/5/6
f 456/5/6 457/5/6 475/5/6
f 474/4/6 456/4/6 475/4/6
f 457/2/6 458/2/6 476/2/6
f 475/5/6 457/5/6 476/5/6
f 458/4/6 459/4/6 477/4/6
f 476/2/6 458/2/6 477/2/6
f 459/4/6 460/4/6 477/4/6
f 470/4/6 471/4/6 477/4/6
f 469/4/6 470/4/6 477/4/6
f 468/4/6 469/4/6 477/4/6
f 467/4/6 468/4/6 477/4/6
f 466/4/6 467/4/6 477/4/6
f 465/4/6 466/4/6 477/4/6
f 464/4/6 465/4/6 477/4/6
f 463/4/6 464/4/6 477/4/6
f 462/4/6 463/4/6 477/4/6
f 461/4/6 462/4/6 477/4/6
f 460/4/6 461/4/6 477/4/6
f 471/1/6 472/1/6 478/1/6
f 477/4/6 471/4/6 478/4/6
f 478/1/6 472/1/6 479/1/6
f 480/5/6 481/5/6 483/5/6
f 483/5/6 481/5/6 484/5/6
f 482/5/6 483/5/6 486/5/6
f 484/5/6 485/5/6 486/5/6
f 483/5/6 484/5/6 486/5/6
f 486/5/6 485/5/6 487/5/6
f 487/5/6 485/5/6 488/5/6
f 488/5/6 489/5/6 490/5/6
f 487/5/6 488/5/6 490/5/6
f 490/5/6 489/5/6 491/5/6
f 491/5/6 489/5/6 492/5/6
f 492/5/6 493/5/6 495/5/6
f 491/5/6 492/5/6 495/5/6
f 494/5/6 495/5/6 496/5/6
f 495/5/6 493/5/6 497/5/6
f 496/5/6 495/5/6 497/5/6
f 498/2/6 499/2/6 501/2/6
f 499/1/6 500/1/6 502/1/6
f 501/2/6 499/2/6 502/2/6
f 501/3/6 502/3/6 503/3/6
f 502/1/6 500/1/6 504/1/6
f 503/3/6 502/3/6 504/3/6
f 504/1/6 500/1/6 505/1/6
f 506/5/6 507/5/6 525/5/6
f 507/4/6 508/4/6 526/4/6
f 525/5/6 507/5/6 526/5/6
f 508/5/6 509/5/6 527/5/6
f 526/4/6 508/4/6 527/4/6
f 509/2/6 510/2/6 528/2/6
f 527/5/6 509/5/6 528/5/6
f 510/4/6 511/4/6 529/4/6
f 528/2/6 510/2/6 529/2/6
f 511/4/6 512/4/6 529/4/6
f 522/4/6 523/4/6 529/4/6
f 521/4/6 522/4/6 529/4/6
f 520/4/6 521/4/6 529/4/6
f 519/4/6 520/4/6 529/4/6
f 518/4/6 519/4/6 529/4/6
f 517/4/6 518/4/6 529/4/6
f 516/4/6 517/4/6 529/4/6
f 515/4/6 516/4/6 529/4/6
f 514/4/6 515/4/6 529/4/6
f 513/4/6 514/4/6 529/4/6
f 512/4/6 513/4/6 529/4/6
f 523/1/6 524/1/6 530/1/6
f 529/4/6 523/4/6 530/4/6
f 530/1/6 524/1/6 531/1/6
f 532/5/6 533/5/6 535/5/6
f 535/5/6 533/5/6 536/5/6
f 536/5/6 533/5/6 537/5/6
f 537/5/6 533/5/6 538/5/6
f 538/5/6 533/5/6 539/5/6
f 539/5/6 533/5/6 540/5/6
f 540/5/6 533/5/6 541/5/6
f 541/5/6 533/5/6 542/5/6
f 542/5/6 533/5/6 543/5/6
f 543/5/6 533/5/6 544/5/6
f 544/5/6 533/5/6 545/5/6
f 545/5/6 533/5/6 546/5/6
f 546/5/6 533/5/6 547/5/6
f 547/5/6 533/5/6 548/5/6
f 548/5/6 533/5/6 549/5/6
f 549/5/6 533/5/6 550/5/6
f 537/2/6 538/2/6 552/2/6
f 538/3/6 539/3/6 553/3/6
f 552/2/6 538/2/6 553/2/6
f 539/2/6 540/2/6 554/2/6
f 553/3/6 539/3/6 554/3/6
f 540/3/6 541/3/6 555/3/6
f 554/2/6 540/2/6 555/2/6
f 541/2/6 542/2/6 556/2/6
f 555/3/6 541/3/6 556/3/6
f 542/3/6 543/3/6 557/3/6
f 556/2/6 542/2/6 557/2/6
f 543/2/6 544/2/6 558/2/6
f 557/3/6 543/3/6 558/3/6
f 544/3/6 545/3/6 559/3/6
f 558/2/6 544/2/6 559/2/6
f 545/2/6 546/2/6 560/2/6
f 559/3/6 545/3/6 560/3/6
f 546/3/6 547/3/6 561/3/6
f 560/2/6 546/2/6 561/2/6
f 547/2/6 548/2/6 562/2/6
f 561/3/6 547/3/6 562/3/6
f 548/3/6 549/3/6 563/3/6
f 562/2/6 548/2/6 563/2/6
f 549/2/6 550/2/6 564/2/6
f 563/3/6 549/3/6 564/3/6
f 550/1/6 551/1/6 565/1/6
f 564/2/6 550/2/6 565/2/6
f 534/5/6 535/5/6 566/5/6
f 535/3/6 536/3/6 567/3/6
f 566/5/6 535/5/6 567/5/6
f 536/5/6 537/5/6 568/5/6
f 567/3/6 536/3/6 568/3/6
f 537/2/6 552/2/6 569/2/6
f 568/5/6 537/5/6 569/5/6
f 552/3/6 553/3/6 570/3/6
f 569/2/6 552/2/6 570/2/6
f 553/2/6 554/2/6 571/2/6
f 570/3/6 553/3/6 571/3/6
f 554/3/6 555/3/6 572/3/6
f 571/2/6 554/2/6 572/2/6
f 555/2/6 556/2/6 573/2/6
f 572/3/6 555/3/6 573/3/6
f 556/3/6 557/3/6 574/3/6
f 573/2/6 556/2/6 574/2/6
f 557/2/6 558/2/6 575/2/6
f 574/3/6 557/3/6 575/3/6
f 558/3/6 559/3/6 576/3/6
f 575/2/6 558/2/6 576/2/6
f 559/2/6 560/2/6 577/2/6
f 576/3/6 559/3/6 577/3/6
f 560/3/6 561/3/6 578/3/6
f 577/2/6 560/2/6 578/2/6
f 561/2/6 562/2/6 579/2/6
f 578/3/6 561/3/6 579/3/6
f 562/3/6 563/3/6 580/3/6
f 579/2/6 562/2/6 580/2/6
f 563/2/6 564/2/6 581/2/6
f 580/3/6 563/3/6 581/3/6
f 564/3/6 565/3/6 582/3/6
f 581/2/6 564/2/6 582/2/6
f 565/1/6 551/1/6 583/1/6
f 582/3/6 565/3/6 583/3/6
f 583/1/6 551/1/6 584/1/6
