# MagicaVoxel @ Ephtracy

# group
o New Piskel-1

# material
mtllib Head-0-New Piskel-1.png (24).mtl
usemtl palette

# normals
vn -1 0 0
vn 1 0 0
vn 0 -1 0
vn 0 1 0
vn 0 0 -1
vn 0 0 1

# texcoords
vt 0.216797 0.5
vt 0.966797 0.5
vt 0.994141 0.5

# verts
v -1 -3.1 -0.3
v -1 -0.7 -0.3
v -1 -3.1 0.5
v -1 -0.7 0.5
v -0.9 -0.7 -0.3
v -0.9 -0.5 -0.3
v -0.9 -0.7 0.5
v -0.9 -0.5 0.5
v -0.8 -3.3 -0.3
v -0.8 -3.1 -0.3
v -0.8 -0.5 -0.3
v -0.8 -0.3 -0.3
v -0.8 -3.3 0.5
v -0.8 -3.1 0.5
v -0.8 -0.5 0.5
v -0.8 -0.3 0.5
v -0.6 -3.5 -0.3
v -0.6 -3.3 -0.3
v -0.6 -3.5 0.5
v -0.6 -3.3 0.5
v 0.3 -1.1 -0.3
v 0.3 -0.9 -0.3
v 0.3 -1.1 0.5
v 0.3 -0.9 0.5
v 0.4 -0.9 -0.3
v 0.4 -0.7 -0.3
v 0.4 -0.9 0.5
v 0.4 -0.7 0.5
v 0.5 -0.7 -0.3
v 0.5 -0.5 -0.3
v 0.5 -3.1 0
v 0.5 -3 0
v 0.5 -3.1 0.1
v 0.5 -3 0.1
v 0.5 -0.7 0.5
v 0.5 -0.5 0.5
v 0.6 -0.5 -0.3
v 0.6 -0.3 -0.3
v 0.6 -0.5 0.5
v 0.6 -0.3 0.5
v -0.6 -0.5 -0.3
v -0.6 -0.3 -0.3
v -0.6 -0.5 0.5
v -0.6 -0.3 0.5
v -0.5 -0.7 -0.3
v -0.5 -0.5 -0.3
v -0.5 -0.7 0.5
v -0.5 -0.5 0.5
v -0.4 -0.9 -0.3
v -0.4 -0.7 -0.3
v -0.4 -0.9 0.5
v -0.4 -0.7 0.5
v -0.3 -1.1 -0.3
v -0.3 -0.9 -0.3
v -0.3 -1.1 0.5
v -0.3 -0.9 0.5
v 0.3 -3.1 0
v 0.3 -3 0
v 0.3 -3.1 0.1
v 0.3 -3 0.1
v 0.6 -3.5 -0.3
v 0.6 -3.3 -0.3
v 0.6 -3.5 0.5
v 0.6 -3.3 0.5
v 0.8 -3.3 -0.3
v 0.8 -3.1 -0.3
v 0.8 -0.5 -0.3
v 0.8 -0.3 -0.3
v 0.8 -3.3 0.5
v 0.8 -3.1 0.5
v 0.8 -0.5 0.5
v 0.8 -0.3 0.5
v 0.9 -0.7 -0.3
v 0.9 -0.5 -0.3
v 0.9 -0.7 0.5
v 0.9 -0.5 0.5
v 1 -3.1 -0.3
v 1 -0.7 -0.3
v 1 -3.1 0.5
v 1 -0.7 0.5
v -0.6 -3.5 -0.3
v -0.6 -3.5 0.5
v 0.6 -3.5 -0.3
v 0.6 -3.5 0.5
v -0.8 -3.3 -0.3
v -0.8 -3.3 0.5
v -0.6 -3.3 -0.3
v -0.6 -3.3 0.5
v 0.6 -3.3 -0.3
v 0.6 -3.3 0.5
v 0.8 -3.3 -0.3
v 0.8 -3.3 0.5
v -1 -3.1 -0.3
v -1 -3.1 0.5
v -0.8 -3.1 -0.3
v -0.8 -3.1 0.5
v 0.8 -3.1 -0.3
v 0.8 -3.1 0.5
v 1 -3.1 -0.3
v 1 -3.1 0.5
v 0.3 -3 0
v 0.3 -3 0.1
v 0.5 -3 0
v 0.5 -3 0.1
v 0.3 -3.1 0
v 0.3 -3.1 0.1
v 0.5 -3.1 0
v 0.5 -3.1 0.1
v -0.3 -1.1 -0.3
v -0.3 -1.1 0.5
v 0.3 -1.1 -0.3
v 0.3 -1.1 0.5
v -0.4 -0.9 -0.3
v -0.4 -0.9 0.5
v -0.3 -0.9 -0.3
v -0.3 -0.9 0.5
v 0.3 -0.9 -0.3
v 0.3 -0.9 0.5
v 0.4 -0.9 -0.3
v 0.4 -0.9 0.5
v -1 -0.7 -0.3
v -1 -0.7 0.5
v -0.9 -0.7 -0.3
v -0.9 -0.7 0.5
v -0.5 -0.7 -0.3
v -0.5 -0.7 0.5
v -0.4 -0.7 -0.3
v -0.4 -0.7 0.5
v 0.4 -0.7 -0.3
v 0.4 -0.7 0.5
v 0.5 -0.7 -0.3
v 0.5 -0.7 0.5
v 0.9 -0.7 -0.3
v 0.9 -0.7 0.5
v 1 -0.7 -0.3
v 1 -0.7 0.5
v -0.9 -0.5 -0.3
v -0.9 -0.5 0.5
v -0.8 -0.5 -0.3
v -0.8 -0.5 0.5
v -0.6 -0.5 -0.3
v -0.6 -0.5 0.5
v -0.5 -0.5 -0.3
v -0.5 -0.5 0.5
v 0.5 -0.5 -0.3
v 0.5 -0.5 0.5
v 0.6 -0.5 -0.3
v 0.6 -0.5 0.5
v 0.8 -0.5 -0.3
v 0.8 -0.5 0.5
v 0.9 -0.5 -0.3
v 0.9 -0.5 0.5
v -0.8 -0.3 -0.3
v -0.8 -0.3 0.5
v -0.6 -0.3 -0.3
v -0.6 -0.3 0.5
v 0.6 -0.3 -0.3
v 0.6 -0.3 0.5
v 0.8 -0.3 -0.3
v 0.8 -0.3 0.5
v -0.6 -3.5 -0.3
v 0.6 -3.5 -0.3
v -0.8 -3.3 -0.3
v -0.6 -3.3 -0.3
v 0.6 -3.3 -0.3
v 0.8 -3.3 -0.3
v -1 -3.1 -0.3
v -0.8 -3.1 -0.3
v 0.8 -3.1 -0.3
v 1 -3.1 -0.3
v -0.3 -1.1 -0.3
v 0.3 -1.1 -0.3
v -0.4 -0.9 -0.3
v -0.3 -0.9 -0.3
v 0.3 -0.9 -0.3
v 0.4 -0.9 -0.3
v -1 -0.7 -0.3
v -0.9 -0.7 -0.3
v -0.5 -0.7 -0.3
v -0.4 -0.7 -0.3
v 0.4 -0.7 -0.3
v 0.5 -0.7 -0.3
v 0.9 -0.7 -0.3
v 1 -0.7 -0.3
v -0.9 -0.5 -0.3
v -0.8 -0.5 -0.3
v -0.6 -0.5 -0.3
v -0.5 -0.5 -0.3
v 0.5 -0.5 -0.3
v 0.6 -0.5 -0.3
v 0.8 -0.5 -0.3
v 0.9 -0.5 -0.3
v -0.8 -0.3 -0.3
v -0.6 -0.3 -0.3
v 0.6 -0.3 -0.3
v 0.8 -0.3 -0.3
v 0.3 -3.1 0.1
v 0.5 -3.1 0.1
v 0.3 -3 0.1
v 0.5 -3 0.1
v 0.3 -3.1 0
v 0.5 -3.1 0
v 0.3 -3 0
v 0.5 -3 0
v -0.6 -3.5 0.5
v 0.6 -3.5 0.5
v -0.8 -3.3 0.5
v -0.6 -3.3 0.5
v 0.6 -3.3 0.5
v 0.8 -3.3 0.5
v -1 -3.1 0.5
v -0.8 -3.1 0.5
v 0.8 -3.1 0.5
v 1 -3.1 0.5
v -0.5 -2.8 0.5
v -0.2 -2.8 0.5
v 0.2 -2.8 0.5
v 0.5 -2.8 0.5
v -0.6 -2.7 0.5
v -0.5 -2.7 0.5
v -0.2 -2.7 0.5
v -0.1 -2.7 0.5
v 0.1 -2.7 0.5
v 0.2 -2.7 0.5
v 0.5 -2.7 0.5
v 0.6 -2.7 0.5
v -0.7 -2.6 0.5
v -0.6 -2.6 0.5
v -0.4 -2.6 0.5
v -0.3 -2.6 0.5
v -0.1 -2.6 0.5
v 0.1 -2.6 0.5
v 0.3 -2.6 0.5
v 0.4 -2.6 0.5
v 0.6 -2.6 0.5
v 0.7 -2.6 0.5
v -0.5 -2.5 0.5
v -0.4 -2.5 0.5
v -0.3 -2.5 0.5
v -0.2 -2.5 0.5
v 0.2 -2.5 0.5
v 0.3 -2.5 0.5
v 0.4 -2.5 0.5
v 0.5 -2.5 0.5
v -0.7 -2.4 0.5
v -0.5 -2.4 0.5
v -0.2 -2.4 0.5
v -0.1 -2.4 0.5
v 0.1 -2.4 0.5
v 0.2 -2.4 0.5
v 0.5 -2.4 0.5
v 0.7 -2.4 0.5
v -0.1 -2.3 0.5
v 0.1 -2.3 0.5
v -0.1 -2.1 0.5
v 0.1 -2.1 0.5
v -0.8 -1.7 0.5
v -0.4 -1.7 0.5
v 0.4 -1.7 0.5
v 0.8 -1.7 0.5
v -0.8 -1.3 0.5
v -0.4 -1.3 0.5
v 0.4 -1.3 0.5
v 0.8 -1.3 0.5
v -0.3 -1.1 0.5
v 0.3 -1.1 0.5
v -0.4 -0.9 0.5
v -0.3 -0.9 0.5
v 0.3 -0.9 0.5
v 0.4 -0.9 0.5
v -1 -0.7 0.5
v -0.9 -0.7 0.5
v -0.5 -0.7 0.5
v -0.4 -0.7 0.5
v 0.4 -0.7 0.5
v 0.5 -0.7 0.5
v 0.9 -0.7 0.5
v 1 -0.7 0.5
v -0.9 -0.5 0.5
v -0.8 -0.5 0.5
v -0.6 -0.5 0.5
v -0.5 -0.5 0.5
v 0.5 -0.5 0.5
v 0.6 -0.5 0.5
v 0.8 -0.5 0.5
v 0.9 -0.5 0.5
v -0.8 -0.3 0.5
v -0.6 -0.3 0.5
v 0.6 -0.3 0.5
v 0.8 -0.3 0.5

# faces
f 3/2/1 2/2/1 1/2/1
f 4/2/1 2/2/1 3/2/1
f 7/2/1 6/2/1 5/2/1
f 8/2/1 6/2/1 7/2/1
f 13/2/1 10/2/1 9/2/1
f 14/2/1 10/2/1 13/2/1
f 15/2/1 12/2/1 11/2/1
f 16/2/1 12/2/1 15/2/1
f 19/2/1 18/2/1 17/2/1
f 20/2/1 18/2/1 19/2/1
f 23/2/1 22/2/1 21/2/1
f 24/2/1 22/2/1 23/2/1
f 27/2/1 26/2/1 25/2/1
f 28/2/1 26/2/1 27/2/1
f 33/2/1 32/2/1 31/2/1
f 34/2/1 32/2/1 33/2/1
f 35/2/1 30/2/1 29/2/1
f 36/2/1 30/2/1 35/2/1
f 39/2/1 38/2/1 37/2/1
f 40/2/1 38/2/1 39/2/1
f 41/2/2 42/2/2 43/2/2
f 43/2/2 42/2/2 44/2/2
f 45/2/2 46/2/2 47/2/2
f 47/2/2 46/2/2 48/2/2
f 49/2/2 50/2/2 51/2/2
f 51/2/2 50/2/2 52/2/2
f 53/2/2 54/2/2 55/2/2
f 55/2/2 54/2/2 56/2/2
f 57/2/2 58/2/2 59/2/2
f 59/2/2 58/2/2 60/2/2
f 61/2/2 62/2/2 63/2/2
f 63/2/2 62/2/2 64/2/2
f 65/2/2 66/2/2 69/2/2
f 69/2/2 66/2/2 70/2/2
f 67/2/2 68/2/2 71/2/2
f 71/2/2 68/2/2 72/2/2
f 73/2/2 74/2/2 75/2/2
f 75/2/2 74/2/2 76/2/2
f 77/2/2 78/2/2 79/2/2
f 79/2/2 78/2/2 80/2/2
f 83/2/3 82/2/3 81/2/3
f 84/2/3 82/2/3 83/2/3
f 87/2/3 86/2/3 85/2/3
f 88/2/3 86/2/3 87/2/3
f 91/2/3 90/2/3 89/2/3
f 92/2/3 90/2/3 91/2/3
f 95/2/3 94/2/3 93/2/3
f 96/2/3 94/2/3 95/2/3
f 99/2/3 98/2/3 97/2/3
f 100/2/3 98/2/3 99/2/3
f 103/2/3 102/2/3 101/2/3
f 104/2/3 102/2/3 103/2/3
f 105/2/4 106/2/4 107/2/4
f 107/2/4 106/2/4 108/2/4
f 109/2/4 110/2/4 111/2/4
f 111/2/4 110/2/4 112/2/4
f 113/2/4 114/2/4 115/2/4
f 115/2/4 114/2/4 116/2/4
f 117/2/4 118/2/4 119/2/4
f 119/2/4 118/2/4 120/2/4
f 121/2/4 122/2/4 123/2/4
f 123/2/4 122/2/4 124/2/4
f 125/2/4 126/2/4 127/2/4
f 127/2/4 126/2/4 128/2/4
f 129/2/4 130/2/4 131/2/4
f 131/2/4 130/2/4 132/2/4
f 133/2/4 134/2/4 135/2/4
f 135/2/4 134/2/4 136/2/4
f 137/2/4 138/2/4 139/2/4
f 139/2/4 138/2/4 140/2/4
f 141/2/4 142/2/4 143/2/4
f 143/2/4 142/2/4 144/2/4
f 145/2/4 146/2/4 147/2/4
f 147/2/4 146/2/4 148/2/4
f 149/2/4 150/2/4 151/2/4
f 151/2/4 150/2/4 152/2/4
f 153/2/4 154/2/4 155/2/4
f 155/2/4 154/2/4 156/2/4
f 157/2/4 158/2/4 159/2/4
f 159/2/4 158/2/4 160/2/4
f 164/2/5 162/2/5 161/2/5
f 165/2/5 162/2/5 164/2/5
f 168/2/5 164/2/5 163/2/5
f 168/2/5 166/2/5 165/2/5
f 168/2/5 165/2/5 164/2/5
f 169/2/5 166/2/5 168/2/5
f 171/2/5 168/2/5 167/2/5
f 171/2/5 170/2/5 169/2/5
f 171/2/5 169/2/5 168/2/5
f 172/2/5 170/2/5 171/2/5
f 173/2/5 171/2/5 167/2/5
f 174/2/5 171/2/5 173/2/5
f 175/2/5 170/2/5 172/2/5
f 176/2/5 170/2/5 175/2/5
f 177/2/5 173/2/5 167/2/5
f 178/2/5 173/2/5 177/2/5
f 179/2/5 173/2/5 178/2/5
f 180/2/5 173/2/5 179/2/5
f 181/2/5 170/2/5 176/2/5
f 182/2/5 170/2/5 181/2/5
f 183/2/5 170/2/5 182/2/5
f 184/2/5 170/2/5 183/2/5
f 185/2/5 179/2/5 178/2/5
f 186/2/5 179/2/5 185/2/5
f 187/2/5 179/2/5 186/2/5
f 188/2/5 179/2/5 187/2/5
f 189/2/5 183/2/5 182/2/5
f 190/2/5 183/2/5 189/2/5
f 191/2/5 183/2/5 190/2/5
f 192/2/5 183/2/5 191/2/5
f 193/2/5 187/2/5 186/2/5
f 194/2/5 187/2/5 193/2/5
f 195/2/5 191/2/5 190/2/5
f 196/2/5 191/2/5 195/2/5
f 199/2/5 198/2/5 197/2/5
f 200/2/5 198/2/5 199/2/5
f 201/2/6 202/2/6 203/2/6
f 203/2/6 202/2/6 204/2/6
f 205/2/6 206/2/6 208/2/6
f 208/2/6 206/2/6 209/2/6
f 207/2/6 208/2/6 212/2/6
f 209/2/6 210/2/6 212/2/6
f 208/2/6 209/2/6 212/2/6
f 212/2/6 210/2/6 213/2/6
f 211/2/6 212/2/6 215/2/6
f 213/2/6 214/2/6 215/2/6
f 212/2/6 213/2/6 215/2/6
f 215/2/6 214/2/6 216/2/6
f 216/2/6 214/2/6 217/2/6
f 217/2/6 214/2/6 218/2/6
f 211/2/6 215/2/6 219/2/6
f 215/3/6 216/3/6 220/3/6
f 219/2/6 215/2/6 220/2/6
f 216/2/6 217/2/6 221/2/6
f 220/3/6 216/3/6 221/3/6
f 221/2/6 217/2/6 222/2/6
f 222/2/6 217/2/6 223/2/6
f 217/3/6 218/3/6 224/3/6
f 223/2/6 217/2/6 224/2/6
f 218/2/6 214/2/6 225/2/6
f 224/3/6 218/3/6 225/3/6
f 225/2/6 214/2/6 226/2/6
f 211/2/6 219/2/6 227/2/6
f 219/3/6 220/3/6 228/3/6
f 227/2/6 219/2/6 228/2/6
f 220/3/6 221/3/6 228/3/6
f 221/3/6 222/3/6 228/3/6
f 228/3/6 222/3/6 229/3/6
f 229/3/6 222/3/6 230/3/6
f 222/2/6 223/2/6 231/2/6
f 230/3/6 222/3/6 231/3/6
f 223/3/6 224/3/6 232/3/6
f 231/2/6 223/2/6 232/2/6
f 225/3/6 226/3/6 232/3/6
f 224/3/6 225/3/6 232/3/6
f 232/3/6 226/3/6 233/3/6
f 233/3/6 226/3/6 234/3/6
f 226/2/6 214/2/6 235/2/6
f 234/3/6 226/3/6 235/3/6
f 235/2/6 214/2/6 236/2/6
f 228/3/6 229/3/6 237/3/6
f 227/3/6 228/3/6 237/3/6
f 229/2/6 230/2/6 238/2/6
f 237/3/6 229/3/6 238/3/6
f 230/3/6 231/3/6 239/3/6
f 238/2/6 230/2/6 239/2/6
f 231/3/6 232/3/6 239/3/6
f 232/3/6 233/3/6 239/3/6
f 239/3/6 233/3/6 240/3/6
f 240/3/6 233/3/6 241/3/6
f 233/2/6 234/2/6 242/2/6
f 241/3/6 233/3/6 242/3/6
f 235/3/6 236/3/6 243/3/6
f 242/2/6 234/2/6 243/2/6
f 234/3/6 235/3/6 243/3/6
f 243/3/6 236/3/6 244/3/6
f 211/2/6 227/2/6 245/2/6
f 227/3/6 237/3/6 245/3/6
f 237/2/6 238/2/6 246/2/6
f 245/3/6 237/3/6 246/3/6
f 239/2/6 240/2/6 246/2/6
f 238/2/6 239/2/6 246/2/6
f 240/3/6 241/3/6 247/3/6
f 246/2/6 240/2/6 247/2/6
f 247/3/6 241/3/6 248/3/6
f 248/3/6 241/3/6 249/3/6
f 243/2/6 244/2/6 250/2/6
f 249/3/6 241/3/6 250/3/6
f 241/2/6 242/2/6 250/2/6
f 242/2/6 243/2/6 250/2/6
f 244/3/6 236/3/6 251/3/6
f 250/2/6 244/2/6 251/2/6
f 236/2/6 214/2/6 252/2/6
f 251/3/6 236/3/6 252/3/6
f 245/2/6 246/2/6 253/2/6
f 248/3/6 249/3/6 253/3/6
f 247/2/6 248/2/6 253/2/6
f 246/2/6 247/2/6 253/2/6
f 249/2/6 250/2/6 254/2/6
f 253/3/6 249/3/6 254/3/6
f 251/2/6 252/2/6 254/2/6
f 250/2/6 251/2/6 254/2/6
f 245/2/6 253/2/6 255/2/6
f 253/1/6 254/1/6 255/1/6
f 254/2/6 252/2/6 256/2/6
f 255/1/6 254/1/6 256/1/6
f 211/2/6 245/2/6 257/2/6
f 245/2/6 255/2/6 257/2/6
f 255/2/6 256/2/6 257/2/6
f 257/2/6 256/2/6 258/2/6
f 256/2/6 252/2/6 259/2/6
f 258/2/6 256/2/6 259/2/6
f 252/2/6 214/2/6 260/2/6
f 259/2/6 252/2/6 260/2/6
f 257/3/6 258/3/6 261/3/6
f 211/2/6 257/2/6 261/2/6
f 258/2/6 259/2/6 262/2/6
f 261/3/6 258/3/6 262/3/6
f 259/3/6 260/3/6 263/3/6
f 262/2/6 259/2/6 263/2/6
f 260/2/6 214/2/6 264/2/6
f 263/3/6 260/3/6 264/3/6
f 262/2/6 263/2/6 265/2/6
f 261/2/6 262/2/6 265/2/6
f 263/2/6 264/2/6 265/2/6
f 265/2/6 264/2/6 266/2/6
f 261/2/6 265/2/6 267/2/6
f 267/2/6 265/2/6 268/2/6
f 266/2/6 264/2/6 269/2/6
f 269/2/6 264/2/6 270/2/6
f 211/2/6 261/2/6 271/2/6
f 261/2/6 267/2/6 271/2/6
f 271/2/6 267/2/6 272/2/6
f 272/2/6 267/2/6 273/2/6
f 273/2/6 267/2/6 274/2/6
f 270/2/6 264/2/6 275/2/6
f 275/2/6 264/2/6 276/2/6
f 264/2/6 214/2/6 277/2/6
f 276/2/6 264/2/6 277/2/6
f 277/2/6 214/2/6 278/2/6
f 272/2/6 273/2/6 279/2/6
f 279/2/6 273/2/6 280/2/6
f 280/2/6 273/2/6 281/2/6
f 281/2/6 273/2/6 282/2/6
f 276/2/6 277/2/6 283/2/6
f 283/2/6 277/2/6 284/2/6
f 284/2/6 277/2/6 285/2/6
f 285/2/6 277/2/6 286/2/6
f 280/2/6 281/2/6 287/2/6
f 287/2/6 281/2/6 288/2/6
f 284/2/6 285/2/6 289/2/6
f 289/2/6 285/2/6 290/2/6
