# MagicaVoxel @ Ephtracy

# group
o 

# material
mtllib BoneBaton.mtl
usemtl palette

# normals
vn -1 0 0
vn 1 0 0
vn 0 0 1
vn 0 0 -1
vn 0 -1 0
vn 0 1 0

# texcoords
vt 0.955078 0.5
vt 0.958984 0.5
vt 0.982422 0.5
vt 0.986328 0.5

# verts
v -0.4 0.4 0.1
v -0.4 0.4 -0.1
v -0.4 0.6 0.1
v -0.4 0.6 -0.1
v -0.1 1.8 0.1
v -0.1 1.8 -0.1
v -0.1 2 0.1
v -0.1 2 -0.1
v 0 1.7 0.1
v 0 1.7 -0.1
v 0 1.8 0.1
v 0 1.8 -0.1
v 0.1 0 0.1
v 0.1 0 -0.1
v 0.1 0.1 0.1
v 0.1 0.1 0
v 0.1 0.1 -0.1
v 0.1 0.2 0.1
v 0.1 0.2 0
v 0.1 0.2 -0.1
v 0.1 0.3 0.1
v 0.1 0.3 0
v 0.1 0.3 -0.1
v 0.1 0.4 0.1
v 0.1 0.4 0
v 0.1 0.4 -0.1
v 0.1 0.6 0.1
v 0.1 0.6 0
v 0.1 0.6 -0.1
v 0.1 1.7 0.1
v 0.1 1.7 -0.1
v 0.3 1.9 0.1
v 0.3 1.9 -0.1
v 0.3 2 0.1
v 0.3 2 -0.1
v 0.1 1.9 0.1
v 0.1 1.9 -0.1
v 0.1 2 0.1
v 0.1 2 -0.1
v 0.3 0 0.1
v 0.3 0 -0.1
v 0.3 0.1 0.1
v 0.3 0.1 0
v 0.3 0.1 -0.1
v 0.3 0.2 0.1
v 0.3 0.2 0
v 0.3 0.2 -0.1
v 0.3 0.3 0.1
v 0.3 0.3 0
v 0.3 0.3 -0.1
v 0.3 0.4 0.1
v 0.3 0.4 0
v 0.3 0.4 -0.1
v 0.3 0.5 0.1
v 0.3 0.5 0
v 0.3 0.5 -0.1
v 0.3 0.6 0.1
v 0.3 0.6 0
v 0.3 0.6 -0.1
v 0.3 1.7 0.1
v 0.3 1.7 -0.1
v 0.4 1.7 0.1
v 0.4 1.7 -0.1
v 0.4 1.8 0.1
v 0.4 1.8 -0.1
v 0.5 1.8 0.1
v 0.5 1.8 -0.1
v 0.5 2 0.1
v 0.5 2 -0.1
v -0.4 0.4 0.1
v -0.4 0.6 0.1
v -0.3 0.4 0.1
v -0.3 0.5 0.1
v -0.3 0.6 0.1
v -0.2 0.4 0.1
v -0.2 0.5 0.1
v -0.2 0.6 0.1
v -0.1 0.4 0.1
v -0.1 0.5 0.1
v -0.1 0.6 0.1
v -0.1 1.8 0.1
v -0.1 2 0.1
v 0 0.4 0.1
v 0 0.5 0.1
v 0 0.6 0.1
v 0 1.7 0.1
v 0 1.8 0.1
v 0.1 0 0.1
v 0.1 0.1 0.1
v 0.1 0.2 0.1
v 0.1 0.3 0.1
v 0.1 0.4 0.1
v 0.1 0.5 0.1
v 0.1 0.6 0.1
v 0.1 1.7 0.1
v 0.1 1.9 0.1
v 0.1 2 0.1
v 0.2 0.1 0.1
v 0.2 0.2 0.1
v 0.2 0.3 0.1
v 0.2 0.4 0.1
v 0.2 0.5 0.1
v 0.2 0.6 0.1
v 0.3 0 0.1
v 0.3 0.1 0.1
v 0.3 0.2 0.1
v 0.3 0.3 0.1
v 0.3 0.4 0.1
v 0.3 0.5 0.1
v 0.3 0.6 0.1
v 0.3 1.7 0.1
v 0.3 1.9 0.1
v 0.3 2 0.1
v 0.4 1.7 0.1
v 0.4 1.8 0.1
v 0.5 1.8 0.1
v 0.5 2 0.1
v -0.4 0.4 -0.1
v -0.4 0.6 -0.1
v -0.3 0.4 -0.1
v -0.3 0.5 -0.1
v -0.3 0.6 -0.1
v -0.2 0.4 -0.1
v -0.2 0.5 -0.1
v -0.2 0.6 -0.1
v -0.1 0.4 -0.1
v -0.1 0.5 -0.1
v -0.1 0.6 -0.1
v -0.1 1.8 -0.1
v -0.1 2 -0.1
v 0 0.4 -0.1
v 0 0.5 -0.1
v 0 0.6 -0.1
v 0 1.7 -0.1
v 0 1.8 -0.1
v 0.1 0 -0.1
v 0.1 0.1 -0.1
v 0.1 0.2 -0.1
v 0.1 0.3 -0.1
v 0.1 0.4 -0.1
v 0.1 0.5 -0.1
v 0.1 0.6 -0.1
v 0.1 1.7 -0.1
v 0.1 1.9 -0.1
v 0.1 2 -0.1
v 0.2 0.1 -0.1
v 0.2 0.2 -0.1
v 0.2 0.3 -0.1
v 0.2 0.4 -0.1
v 0.2 0.5 -0.1
v 0.2 0.6 -0.1
v 0.3 0 -0.1
v 0.3 0.1 -0.1
v 0.3 0.2 -0.1
v 0.3 0.3 -0.1
v 0.3 0.4 -0.1
v 0.3 0.5 -0.1
v 0.3 0.6 -0.1
v 0.3 1.7 -0.1
v 0.3 1.9 -0.1
v 0.3 2 -0.1
v 0.4 1.7 -0.1
v 0.4 1.8 -0.1
v 0.5 1.8 -0.1
v 0.5 2 -0.1
v 0.1 0 0.1
v 0.3 0 0.1
v 0.1 0 -0.1
v 0.3 0 -0.1
v -0.4 0.4 0.1
v -0.3 0.4 0.1
v -0.2 0.4 0.1
v -0.1 0.4 0.1
v 0 0.4 0.1
v 0.1 0.4 0.1
v -0.3 0.4 0
v -0.2 0.4 0
v -0.1 0.4 0
v 0 0.4 0
v 0.1 0.4 0
v -0.4 0.4 -0.1
v -0.3 0.4 -0.1
v -0.2 0.4 -0.1
v -0.1 0.4 -0.1
v 0 0.4 -0.1
v 0.1 0.4 -0.1
v 0 1.7 0.1
v 0.1 1.7 0.1
v 0.3 1.7 0.1
v 0.4 1.7 0.1
v 0 1.7 -0.1
v 0.1 1.7 -0.1
v 0.3 1.7 -0.1
v 0.4 1.7 -0.1
v -0.1 1.8 0.1
v 0 1.8 0.1
v 0.4 1.8 0.1
v 0.5 1.8 0.1
v -0.1 1.8 -0.1
v 0 1.8 -0.1
v 0.4 1.8 -0.1
v 0.5 1.8 -0.1
v -0.4 0.6 0.1
v -0.3 0.6 0.1
v -0.2 0.6 0.1
v -0.1 0.6 0.1
v 0 0.6 0.1
v 0.1 0.6 0.1
v -0.3 0.6 0
v -0.2 0.6 0
v -0.1 0.6 0
v 0 0.6 0
v 0.1 0.6 0
v -0.4 0.6 -0.1
v -0.3 0.6 -0.1
v -0.2 0.6 -0.1
v -0.1 0.6 -0.1
v 0 0.6 -0.1
v 0.1 0.6 -0.1
v 0.1 1.9 0.1
v 0.3 1.9 0.1
v 0.1 1.9 -0.1
v 0.3 1.9 -0.1
v -0.1 2 0.1
v 0.1 2 0.1
v 0.3 2 0.1
v 0.5 2 0.1
v -0.1 2 -0.1
v 0.1 2 -0.1
v 0.3 2 -0.1
v 0.5 2 -0.1

# faces
f 3/1/1 2/1/1 1/1/1
f 4/1/1 2/1/1 3/1/1
f 7/2/1 6/2/1 5/2/1
f 8/2/1 6/2/1 7/2/1
f 11/2/1 10/2/1 9/2/1
f 12/2/1 10/2/1 11/2/1
f 15/1/1 14/1/1 13/1/1
f 16/1/1 14/1/1 15/1/1
f 17/1/1 14/1/1 16/1/1
f 18/4/1 16/4/1 15/4/1
f 19/3/1 17/3/1 16/3/1
f 19/4/1 16/4/1 18/4/1
f 20/3/1 17/3/1 19/3/1
f 21/3/1 19/3/1 18/3/1
f 22/4/1 20/4/1 19/4/1
f 22/3/1 19/3/1 21/3/1
f 23/4/1 20/4/1 22/4/1
f 24/4/1 22/4/1 21/4/1
f 25/3/1 23/3/1 22/3/1
f 25/4/1 22/4/1 24/4/1
f 26/3/1 23/3/1 25/3/1
f 30/2/1 28/2/1 27/2/1
f 30/2/1 29/2/1 28/2/1
f 31/2/1 29/2/1 30/2/1
f 34/2/1 33/2/1 32/2/1
f 35/2/1 33/2/1 34/2/1
f 36/2/2 37/2/2 38/2/2
f 38/2/2 37/2/2 39/2/2
f 40/1/2 41/1/2 42/1/2
f 42/1/2 41/1/2 43/1/2
f 43/1/2 41/1/2 44/1/2
f 42/3/2 43/3/2 45/3/2
f 43/4/2 44/4/2 46/4/2
f 45/3/2 43/3/2 46/3/2
f 46/4/2 44/4/2 47/4/2
f 45/4/2 46/4/2 48/4/2
f 46/3/2 47/3/2 49/3/2
f 48/4/2 46/4/2 49/4/2
f 49/3/2 47/3/2 50/3/2
f 48/3/2 49/3/2 51/3/2
f 49/4/2 50/4/2 52/4/2
f 51/3/2 49/3/2 52/3/2
f 52/4/2 50/4/2 53/4/2
f 51/4/2 52/4/2 54/4/2
f 52/3/2 53/3/2 55/3/2
f 54/4/2 52/4/2 55/4/2
f 55/3/2 53/3/2 56/3/2
f 54/3/2 55/3/2 57/3/2
f 55/4/2 56/4/2 58/4/2
f 57/3/2 55/3/2 58/3/2
f 58/4/2 56/4/2 59/4/2
f 57/2/2 58/2/2 60/2/2
f 58/2/2 59/2/2 60/2/2
f 60/2/2 59/2/2 61/2/2
f 62/2/2 63/2/2 64/2/2
f 64/2/2 63/2/2 65/2/2
f 66/2/2 67/2/2 68/2/2
f 68/2/2 67/2/2 69/2/2
f 72/1/3 71/1/3 70/1/3
f 73/1/3 71/1/3 72/1/3
f 74/1/3 71/1/3 73/1/3
f 75/3/3 73/3/3 72/3/3
f 76/4/3 74/4/3 73/4/3
f 76/3/3 73/3/3 75/3/3
f 77/4/3 74/4/3 76/4/3
f 78/4/3 76/4/3 75/4/3
f 79/3/3 77/3/3 76/3/3
f 79/4/3 76/4/3 78/4/3
f 80/3/3 77/3/3 79/3/3
f 83/3/3 79/3/3 78/3/3
f 84/4/3 80/4/3 79/4/3
f 84/3/3 79/3/3 83/3/3
f 85/4/3 80/4/3 84/4/3
f 87/2/3 82/2/3 81/2/3
f 92/4/3 84/4/3 83/4/3
f 93/3/3 85/3/3 84/3/3
f 93/4/3 84/4/3 92/4/3
f 94/3/3 85/3/3 93/3/3
f 95/2/3 87/2/3 86/2/3
f 96/2/3 82/2/3 87/2/3
f 96/2/3 87/2/3 95/2/3
f 97/2/3 82/2/3 96/2/3
f 98/1/3 89/1/3 88/1/3
f 98/4/3 90/4/3 89/4/3
f 99/3/3 91/3/3 90/3/3
f 99/4/3 90/4/3 98/4/3
f 100/4/3 92/4/3 91/4/3
f 100/3/3 91/3/3 99/3/3
f 101/3/3 93/3/3 92/3/3
f 101/4/3 92/4/3 100/4/3
f 102/4/3 94/4/3 93/4/3
f 102/3/3 93/3/3 101/3/3
f 103/2/3 95/2/3 94/2/3
f 103/4/3 94/4/3 102/4/3
f 103/2/3 96/2/3 95/2/3
f 104/1/3 98/1/3 88/1/3
f 105/3/3 99/3/3 98/3/3
f 105/1/3 98/1/3 104/1/3
f 106/4/3 100/4/3 99/4/3
f 106/3/3 99/3/3 105/3/3
f 107/3/3 101/3/3 100/3/3
f 107/4/3 100/4/3 106/4/3
f 108/4/3 102/4/3 101/4/3
f 108/3/3 101/3/3 107/3/3
f 109/3/3 103/3/3 102/3/3
f 109/4/3 102/4/3 108/4/3
f 110/2/3 96/2/3 103/2/3
f 110/3/3 103/3/3 109/3/3
f 111/2/3 96/2/3 110/2/3
f 112/2/3 96/2/3 111/2/3
f 114/2/3 113/2/3 112/2/3
f 114/2/3 112/2/3 111/2/3
f 115/2/3 113/2/3 114/2/3
f 116/2/3 113/2/3 115/2/3
f 117/2/3 113/2/3 116/2/3
f 118/1/4 119/1/4 120/1/4
f 120/1/4 119/1/4 121/1/4
f 121/1/4 119/1/4 122/1/4
f 120/4/4 121/4/4 123/4/4
f 121/3/4 122/3/4 124/3/4
f 123/4/4 121/4/4 124/4/4
f 124/3/4 122/3/4 125/3/4
f 123/3/4 124/3/4 126/3/4
f 124/4/4 125/4/4 127/4/4
f 126/3/4 124/3/4 127/3/4
f 127/4/4 125/4/4 128/4/4
f 126/4/4 127/4/4 131/4/4
f 127/3/4 128/3/4 132/3/4
f 131/4/4 127/4/4 132/4/4
f 132/3/4 128/3/4 133/3/4
f 129/2/4 130/2/4 135/2/4
f 131/3/4 132/3/4 140/3/4
f 132/4/4 133/4/4 141/4/4
f 140/3/4 132/3/4 141/3/4
f 141/4/4 133/4/4 142/4/4
f 134/2/4 135/2/4 143/2/4
f 135/2/4 130/2/4 144/2/4
f 143/2/4 135/2/4 144/2/4
f 144/2/4 130/2/4 145/2/4
f 136/1/4 137/1/4 146/1/4
f 137/3/4 138/3/4 146/3/4
f 138/4/4 139/4/4 147/4/4
f 146/3/4 138/3/4 147/3/4
f 139/3/4 140/3/4 148/3/4
f 147/4/4 139/4/4 148/4/4
f 140/4/4 141/4/4 149/4/4
f 148/3/4 140/3/4 149/3/4
f 141/3/4 142/3/4 150/3/4
f 149/4/4 141/4/4 150/4/4
f 142/2/4 143/2/4 151/2/4
f 150/3/4 142/3/4 151/3/4
f 143/2/4 144/2/4 151/2/4
f 136/1/4 146/1/4 152/1/4
f 146/4/4 147/4/4 153/4/4
f 152/1/4 146/1/4 153/1/4
f 147/3/4 148/3/4 154/3/4
f 153/4/4 147/4/4 154/4/4
f 148/4/4 149/4/4 155/4/4
f 154/3/4 148/3/4 155/3/4
f 149/3/4 150/3/4 156/3/4
f 155/4/4 149/4/4 156/4/4
f 150/4/4 151/4/4 157/4/4
f 156/3/4 150/3/4 157/3/4
f 151/2/4 144/2/4 158/2/4
f 157/4/4 151/4/4 158/4/4
f 158/2/4 144/2/4 159/2/4
f 159/2/4 144/2/4 160/2/4
f 160/2/4 161/2/4 162/2/4
f 159/2/4 160/2/4 162/2/4
f 162/2/4 161/2/4 163/2/4
f 163/2/4 161/2/4 164/2/4
f 164/2/4 161/2/4 165/2/4
f 168/1/5 167/1/5 166/1/5
f 169/1/5 167/1/5 168/1/5
f 176/1/5 171/1/5 170/1/5
f 176/3/5 172/3/5 171/3/5
f 177/4/5 173/4/5 172/4/5
f 177/3/5 172/3/5 176/3/5
f 178/3/5 174/3/5 173/3/5
f 178/4/5 173/4/5 177/4/5
f 179/4/5 175/4/5 174/4/5
f 179/3/5 174/3/5 178/3/5
f 180/4/5 175/4/5 179/4/5
f 181/1/5 176/1/5 170/1/5
f 182/4/5 177/4/5 176/4/5
f 182/1/5 176/1/5 181/1/5
f 183/3/5 178/3/5 177/3/5
f 183/4/5 177/4/5 182/4/5
f 184/4/5 179/4/5 178/4/5
f 184/3/5 178/3/5 183/3/5
f 185/3/5 180/3/5 179/3/5
f 185/4/5 179/4/5 184/4/5
f 186/3/5 180/3/5 185/3/5
f 191/2/5 188/2/5 187/2/5
f 192/2/5 188/2/5 191/2/5
f 193/2/5 190/2/5 189/2/5
f 194/2/5 190/2/5 193/2/5
f 199/2/5 196/2/5 195/2/5
f 200/2/5 196/2/5 199/2/5
f 201/2/5 198/2/5 197/2/5
f 202/2/5 198/2/5 201/2/5
f 203/1/6 204/1/6 209/1/6
f 204/4/6 205/4/6 209/4/6
f 205/3/6 206/3/6 210/3/6
f 209/4/6 205/4/6 210/4/6
f 206/4/6 207/4/6 211/4/6
f 210/3/6 206/3/6 211/3/6
f 207/3/6 208/3/6 212/3/6
f 211/4/6 207/4/6 212/4/6
f 212/3/6 208/3/6 213/3/6
f 203/1/6 209/1/6 214/1/6
f 209/3/6 210/3/6 215/3/6
f 214/1/6 209/1/6 215/1/6
f 210/4/6 211/4/6 216/4/6
f 215/3/6 210/3/6 216/3/6
f 211/3/6 212/3/6 217/3/6
f 216/4/6 211/4/6 217/4/6
f 212/4/6 213/4/6 218/4/6
f 217/3/6 212/3/6 218/3/6
f 218/4/6 213/4/6 219/4/6
f 220/2/6 221/2/6 222/2/6
f 222/2/6 221/2/6 223/2/6
f 224/2/6 225/2/6 228/2/6
f 228/2/6 225/2/6 229/2/6
f 226/2/6 227/2/6 230/2/6
f 230/2/6 227/2/6 231/2/6
